<svg xmlns="http://www.w3.org/2000/svg" width="1024" height="1024"><path fill="#FDFCF6" d="M0 0h1024v1024H0V0Z"/><path fill="#FEE5A7" d="M196.262 763.568c3.914 2.341 7.424 5.697 10.957 8.596 6.782 5.566 13.618 11.321 20.781 16.388 3.187 2.253 15.832 9.338 17.282 11.802l-.263.612.51.101c.426.081.864.087 1.293.146 2.814.39 16.491 9.626 19.98 11.578 26.999 15.099 59.442 26.986 90.616 27.121 1.707 25.346 3.917 55.608 24.389 73.305 9.072 7.844 19.611 12.547 30.672 16.873-4.39 2.758-10.464 4.698-15.382 6.241-39.007 12.235-81.343 13.094-118.317-6.377-34.649-18.246-52.776-49.527-64.73-85.392-2.067-6.201-3.223-12.629-5.165-18.817-2.311-2.146-.025-5.023-1.534-7.748-.143-.256-.299-.505-.448-.757l.498-.419 1.092-1.011c-4.265-17.276-8.74-34.805-12.231-52.242ZM871.891 522.435c40.471 30.556 67.548 71.009 74.59 121.681 4.155 29.9 1.593 61.392-5.866 90.608-.452 1.771-3.088 10.064-1.988 11.05l2.008-1.099.635.207-.227.856c-.163.092-.327.182-.488.276-1.052.614-2.067 1.288-3.088 1.953-4.249 12.428-7.831 24.938-12.853 37.1-3.257 7.886-7.599 15.296-10.832 23.143 16.531.268 32.879.246 49.401-.357 2.72-.1 18.058-1.443 18.936-.892-7.077 1.311-14.423 1.299-21.602 1.552-15.884.562-31.768.301-47.658.42-5.493 9.383-11.158 18.279-17.57 27.058.319 1.121.073.615.714 1.528l-1.377-.236c-4.051 3.319-7.088 8.523-10.456 12.564-6.162 7.394-12.76 14.496-19.981 20.875-4.971 4.391-10.645 8.127-16.524 11.182-2.592 1.348-5.862 2.445-8.224 4.102-.802.563-1.147 1.191-1.448 2.096l-.221-.612-.002 1.2c-.058-.326-.065-.666-.173-.979-.066-.193-.227-.339-.341-.508-4.688 1.035-9.184 2.701-13.784 4.056a159.033 159.033 0 0 1-21.502 4.742c-46.214 6.824-98.482-5.051-140.065-25.34 4.159-28.564 4.161-57.741 5.371-86.548 1.497-35.611 3.77-71.626 2.73-107.263 8.902-2.867 18.033-8.031 26.521-12.055 50.988-24.176 99.98-57.805 139.585-98.054 13.171-13.386 26.006-28.042 35.53-44.305l.249-.001Z"/><path fill="#B7D5DC" d="M560.447 238.045c18.523-4.894 35.661-15.312 51.504-25.766 40.246-26.556 80.036-60.397 130.08-64.757 22.911-1.996 47.064 3.749 66.967 15.235 49.457 28.541 77.078 81.321 91.227 134.809 15.923 60.194 14.792 131.878-9.954 189.602-2.883 6.726-5.76 13.688-9.457 20.006-2.96 5.058-6.323 10.014-8.923 15.261l-.249.001c-9.524 16.263-22.359 30.919-35.53 44.305-39.605 40.249-88.597 73.878-139.585 98.054-8.488 4.024-17.619 9.188-26.521 12.055-.671-21.717-1.451-43.368-5.673-64.742-7.881-39.886-24.881-75.167-40.492-112.312-10.368-24.67-19.852-49.755-29.449-74.732-3.968-7.669-6.514-17.901-9.365-26.2-19.161-55.767-24.254-102.074-24.58-160.819Z"/><path fill="#9DAF83" d="M594.392 425.064c33.111 4.521 67.953 10.327 100.357 18.34 49.929 12.347 105.009 32.466 148.669 59.642 7.402 4.606 22.475 13.243 28.224 19.39-9.524 16.263-22.359 30.919-35.53 44.305-39.605 40.249-88.597 73.878-139.585 98.054-8.488 4.024-17.619 9.188-26.521 12.055-.671-21.717-1.451-43.368-5.673-64.742-7.881-39.886-24.881-75.167-40.492-112.312-10.368-24.67-19.852-49.755-29.449-74.732Z"/><path fill="#B1D1DA" d="m318.996 239.821.486-.253c42.306-21.839 72.3-15.034 113.527 3.34 9.615 4.285 19.49 9.808 29.502 12.9.147.045.296.088.444.131-2.103 62.875-12.261 117.978-38.205 175.719-17.24 40.215-36.216 79.366-49.661 121.148-14.002 43.516-21.226 90.419-22.426 136.069-.656 24.937.553 49.977 1.408 74.897.871 25.36 1.483 50.831 3.347 76.14-31.174-.135-63.617-12.022-90.616-27.121-3.489-1.952-17.166-11.188-19.98-11.578-.429-.059-.867-.065-1.293-.146l-.51-.101.263-.612c-1.45-2.464-14.095-9.549-17.282-11.802-7.163-5.067-13.999-10.822-20.781-16.388-3.533-2.899-7.043-6.255-10.957-8.596 3.491 17.437 7.966 34.966 12.231 52.242l-1.092 1.011-.498.419-1.437.035c-.569-.757-1.027-1.307-1.365-2.206l1.756.679c.029-.188.168-1.039.154-1.209-.352-4.265-9.06-25.896-11.024-31.53-3.227-9.257-5.806-18.814-9.413-27.924-55.638-38.984-92.775-102.418-105.452-168.532-5.779-30.137-5.825-61.947.268-92.047 9.882-48.813 35.251-75.756 77.286-99.406 13.212-7.434 26.84-14.037 39.893-21.783 14.849-8.811 29.97-19.719 39.775-34.179-5.657-20.243-11.544-40.054-15.113-60.837-1.875-10.919-2.465-21.911-3.947-32.869 2.391 6.062 2.374 13.386 3.102 19.82a242.559 242.559 0 0 0 2.423 16.427c3.499 19.118 8.536 37.791 14.206 56.358 7.924-9.132 13.874-20.262 20.021-30.609 4.217-7.097 8.727-13.994 13.247-20.9-4.294-3.66-10.91-7.799-13.954-12.342l.277-.091 14.277 11.805c14.887-21.25 24.622-30.301 45.737-45.61-25.452-5.444-52.597-3.523-78.291-1.167-4.43.406-10.548.176-14.697 1.554-.823.273-1.522.429-2.377.554l.288-.507c4.823-2.42 11.621-1.933 16.955-2.42 26.607-2.429 53.102-4.101 79.498 1.517Z"/><path fill="#FDFCF6" d="M207.401 816.821c-4.235-14.807-10.14-29.225-15.086-43.813-1.864-5.497-3.981-11.099-5.222-16.774 2.834 2.376 5.776 4.493 8.822 6.588l.347.746c3.491 17.437 7.966 34.966 12.231 52.242l-1.092 1.011Z"/><path fill="#9DAF83" d="M195.915 762.822c-1.246-5.756-3.293-11.512-4.737-17.253-4.142-16.477-7.587-32.814-9.103-49.743-5.824-65.049 7.004-121.801 49.528-172.554 39.444-47.075 93.931-71.209 152.896-84.214 13.106-2.89 26.896-6.21 40.251-7.4-17.24 40.215-36.216 79.366-49.661 121.148-14.002 43.516-21.226 90.419-22.426 136.069-.656 24.937.553 49.977 1.408 74.897.871 25.36 1.483 50.831 3.347 76.14-31.174-.135-63.617-12.022-90.616-27.121-3.489-1.952-17.166-11.188-19.98-11.578-.429-.059-.867-.065-1.293-.146l-.51-.101.263-.612c-1.45-2.464-14.095-9.549-17.282-11.802-7.163-5.067-13.999-10.822-20.781-16.388-3.533-2.899-7.043-6.255-10.957-8.596l-.347-.746Z"/><path fill="#3D3E3C" d="M453.798 127.912c-2.747-7.507-4.223-19.846-1.49-27.505 2.318-6.495 9.12-10.245 15.092-12.881 25.246-11.147 57.13-13.042 82.972-2.913 7.751 3.037 16.435 7.585 19.779 15.704 3.415 8.293 2.105 21.246-1.243 29.362 1.503 5.087 4.143 9.652 6.236 14.499 4.562 10.563 5.039 22.702 2.767 33.885-2.388 11.75-8.179 25.668-18.522 32.477l1.058 27.505c.326 58.745 5.419 105.052 24.58 160.819 2.851 8.299 5.397 18.531 9.365 26.2 9.597 24.977 19.081 50.062 29.449 74.732 15.611 37.145 32.611 72.426 40.492 112.312 4.222 21.374 5.002 43.025 5.673 64.742 1.04 35.637-1.233 71.652-2.73 107.263-1.21 28.807-1.212 57.984-5.371 86.548-3.587 19.039-8.326 35.948-25.02 47.409-42.774 29.367-141.745 30.366-191.369 20.904-11.149-2.126-22.373-4.972-33.037-8.884-11.061-4.326-21.6-9.029-30.672-16.873-20.472-17.697-22.682-47.959-24.389-73.305-1.864-25.309-2.476-50.78-3.347-76.14-.855-24.92-2.064-49.96-1.408-74.897 1.2-45.65 8.424-92.553 22.426-136.069 13.445-41.782 32.421-80.933 49.661-121.148 25.944-57.741 36.102-112.844 38.205-175.719.821-14.712 1.101-29.442 1.237-44.175a33.547 33.547 0 0 1-2.203-1.701c-9.471-8.043-19.624-27.513-20.674-39.961-.921-10.902 3.121-21.854 10.06-30.148.011-4.168.322-8.36 2.423-12.042Z"/><path fill="#FEE5A7" d="M452.804 188.298c3.119 1.189 6.204 3.08 9.213 4.569.418 3.481.926 6.945 1.442 10.413-4.891-2.696-8.288-10.131-10.655-14.982ZM568.896 188.055l.317.43c-1.548 5.424-6.04 10.733-9.692 14.911-1.445-1.869-.243-7.746-.02-10.13 3.207-1.559 6.293-3.449 9.395-5.211ZM467.379 194.346c2.169.601 4.385 1.062 6.577 1.572.133 4.776.338 9.542.58 14.313-1.788-.403-3.561-.991-5.325-1.497-.671-4.788-1.242-9.589-1.832-14.388ZM454.686 144.274c2.588.695 5.289 2.142 7.767 3.213-5.545 8.648-9.473 17.667-10.789 27.907-.119 1.386-.186 2.634-.74 3.932-2.229-1.949-3.751-6.564-4.098-9.466-1.042-8.698 2.599-18.762 7.86-25.586ZM567.706 141.899l.796.363c2.718 5.003 3.81 11.685 4.382 17.302.595 5.842 1.138 16.983-3.216 21.563-.966 1.016-1.643 1.481-3.004 1.605.219-14.662-1.875-22.349-7.617-35.722 3.276-1.344 5.993-2.742 8.659-5.111ZM518.974 157.243c2.832 3.449 9.215 30.2 10.389 35.927-2.403.317-4.829.52-7.239.773l-9.3.414c-3.264-13.593.189-24.822 6.15-37.114ZM466.533 148.307c4.094.792 8.166 1.479 12.301 2.014-6.616 12.025-10.766 22.433-12.319 36.107-.097.695.029.324-.528 1.049-1.205-.116-2.183-.46-3.304-.895-2.081-.807-5.752-2.626-6.409-5.011-2.209-8.014 6.645-26.243 10.259-33.264ZM551.897 148.704c.319-.077.628-.235.957-.232.929.008.994.237 1.496.85 6.347 7.752 8.279 26.265 7.278 36.018-2.864 1.359-5.839 2.408-8.814 3.494-2.556-13.572-6.394-25.933-11.685-38.638l10.768-1.492ZM564.995 104.463l.448.159c.259.434.36.546.495 1.105 1.01 4.182.721 12.231-1.488 15.965-3.766 6.365-19.073 8.392-25.877 10.017l-.728-.612c-.524-5.898.03-12.244.159-18.181 9.374-1.653 18.341-4.496 26.991-8.453ZM484.168 150.948c3.91.532 7.886.558 11.827.685-4.939 13.399-10.012 26.406-11.714 40.693-4.333-.754-8.639-1.55-12.938-2.478.459-14.363 5.636-26.681 12.825-38.9ZM457.04 106.049c10.386 4.196 20.558 5.935 31.554 7.649.038 6.485.324 12.982.518 19.464-6.841-1.026-25.618-4.095-29.914-8.984-3.166-3.603-2.181-13.409-2.158-18.129ZM533.463 150.717c.496-.063.953.054 1.444.13 6.836 8.827 10.884 28.233 13.204 39.385-3.972.892-7.963 1.466-11.992 2.032l-1.125.132c-1.804-1.501-7.669-25.848-8.969-29.844-1.224-3.763-2.837-7.396-4.437-11.011l11.875-.824ZM500.344 151.72l15.679-.168c-3.678 9.036-8.015 17.246-9.393 27.079-.584 4.163 1.484 12.527.452 15.248l-1.457.219c-5.657-.094-11.351-.623-16.97-1.253 2.195-13.981 7.438-27.665 11.689-41.125Z"/><path fill="#FEE5A7" d="M458.194 130.544c35.069 13.355 70.224 10.563 105.423-.248.257 2.562.283 5.065.264 7.634-1.013.611-2.022 1.158-3.12 1.611-20.192 8.333-83.906 8.948-103.854-.059.106-3.065.459-5.979 1.287-8.938Z"/><path fill="#FEE5A7" d="M531.823 113.725c.438-.11 1.422-.073 1.888-.09 2.027 2.279.686 15.097.591 18.689-12.22 2.249-24.651 2.356-37.002 1.49-1.362-.115-2.702-.297-4.054-.493-1.63-3.068-.76-15.033-.776-18.97 13.24.962 26.15.668 39.353-.626Z"/><path fill="#B7D5DC" d="M397.883 913.98c5.293.394 15.439 4.648 21.334 6.263 8.902 2.439 17.864 4.037 26.972 5.48 58.774 9.309 119.688 4.569 177.001-10.809l-.069.165 1.109-.245-2.264 1.554c-8.443 3.732-16.848 6.927-25.765 9.325-52.289 14.06-150.113 16.01-198.318-11.733Z"/><path fill="#FEE5A7" d="M547.863 195.647c1.065-.139 1.102-.37 2.025.283 1.111 4.497.271 10.186.064 14.835-20.225 5.183-47.783 4.338-68.323.949l-1.274-.383c-1.885-2.532-1.442-11.224-1.619-14.569 22.974 3.978 46.257 3.032 69.127-1.115ZM508.592 417.686c16.113-2.507 32.333 3.557 43.869 14.787 5.878 5.722 10.876 13.997 19.458 15.753 7.074 1.447 13.432-2.138 19.01-6.004l3.401 6.891c-6.442 3.78-12.237 7.612-20.028 7.547-12.637-.106-18.596-9.798-26.653-17.657-10.567-10.308-22.998-13.66-37.433-13.445-37.608 4.427-39.006 28.433-56.577 32.854-8.914 2.243-20.387-2.309-27.878-6.982l2.307-5.172c10.499 5.62 22.655 8.275 32.661-.041 5.155-4.286 9.427-9.61 14.602-13.932 9.756-8.146 20.682-12.942 33.261-14.599ZM510.247 83.213c13.178-.809 27.473 1.604 39.612 6.796 3.436 1.47 11.721 4.639 13 8.473.306.917.034.96-.393 1.725-2.749 1.645-6.157 2.438-9.213 3.386-13.781 4.277-26.692 5.73-41.021 6.094-18.191-.254-37.476-1.565-54.52-8.332.523-.842 1.035-1.63 1.712-2.36 10.744-11.59 35.935-15 50.823-15.782Z"/><path fill="#33332F" d="M539.215 87.871c1.192.147 1.837.517 2.846 1.154.459 1.008.847 1.514.225 2.605-.791 1.386-2.081 1.568-3.462 2.056-.413-.03-.953-.052-1.344-.165-1.315-.38-1.49-.683-2.096-1.802.084-.486.121-.88.359-1.337.728-1.4 2.102-1.94 3.472-2.51ZM530.071 99.652c.172-.023.344-.049.516-.068 2.952-.327 6.907-.989 9.357.956.548 1.414.315 1.772-.025 3.211-2.371.368-6.575.793-8.63-.801-1.179-.914-1.054-1.962-1.218-3.298ZM479.057 96.54c1.973-.118 4.038-.24 6.012-.16 1.442.059 2.42.299 3.455 1.366.239 1.513-.068 1.843-.694 3.201-.717.028-1.435.038-2.153.045-2.472.026-5.464.424-7.371-1.438-.25-1.515-.003-1.644.751-3.014ZM501.364 87.209c.288-.003.582-.065.864-.008 1.126.228 1.364.751 1.73 1.682-.164.816-.127 1.327-.705 1.972-2.057 2.297-5.417 1.896-8.248 2.159-.507-.048-.682-.044-1.223-.211-.914-.283-1.9-.694-2.276-1.565l.904-1.435c3.076-1.836 5.459-2.287 8.954-2.594ZM529.052 93.686l1.696-.142c.825.306 1.106.493 1.711 1.178.697.789.483.775.401 1.733-3.547 3.308-8.319 2.25-12.591 3.225-1.568.358-2.81 2.672-3.788 3.914-2.33 1.192-4.198.712-6.595.001-2.348-.46-3.357-.91-4.956-2.724-.12-.918-.232-.52.251-1.215 3.648-1.928 5.117-.16 8.679-.145 2.749.012 5.683-2.658 7.561-4.457 2.493-.627 5.095-.95 7.631-1.368Z"/><path fill="#FEE5A7" d="M410.854 485.021c6.029 2.998 12.135 5.918 18.351 8.511 11.222 4.68 22.883 8.021 31.792 16.759 7.896 7.745 13.311 17.761 21.82 24.911 9.026 7.583 21.813 10.909 33.454 9.813 22.478-2.117 30.988-18.018 44.075-33.57 13.438-15.969 29.729-20.735 49.869-22.456 1.705 3.535 3.954 7.627 4.531 11.514l-.745.499a56.138 56.138 0 0 0-2.807-.282c-34.143-2.678-37.379 18.371-59.155 36.844-23.148 19.636-56.984 20.988-80.533 1.069-10.021-8.475-17.277-19.891-28.082-27.445-10.664-7.455-25.227-12.362-38.138-13.444l5.568-12.723Z"/><path fill="#B7D5DC" d="M653.338 862.872c.022.107.054.213.068.322 1.335 10.097-7.044 32.747-13.433 40.867-.74.35-1.459.684-2.225.975-65.975 25.134-183.59 28.552-248.808-.643-8.377-3.75-11.372-9.471-14.47-17.599a134.036 134.036 0 0 1-4.998-18.438c3.597 3.668 7.394 7.059 11.576 10.049 5.371 3.841 11.238 7.14 17.37 9.598 46.774 18.752 141.355 19.382 190.654 10.922 26.237-4.503 48.522-13.745 64.266-36.053ZM659.217 699.489l1.341.137c.264.564.359.695.485 1.395.955 5.295-.264 12.342-.393 17.799-.536 22.687-1.803 45.362-2.721 68.036l-1.182 33.429c-.203 6.58.238 14.072-1.173 20.475-1.243 5.639-6.227 12.365-9.379 17.221-11.059-3.101-19.811-8.578-28.005-16.557-7.219-7.387-12.042-16.054-15.042-25.899-7.235-23.742-2.138-48.107 9.355-69.604 9.272-17.341 27.468-40.588 46.714-46.432Z"/><path fill="#33332F" d="M629.718 802.222c1.768.182 2.627.4 3.775 1.749.183 1.555-.357 2.42-1.051 3.743-1.448-.38-2.065-.505-3.067-1.703-.418-1.484-.095-2.379.343-3.789Z"/><path fill="#B7D5DC" d="M370.276 712.147a42.95 42.95 0 0 1 13.235.316c21 3.807 37.813 17.479 49.686 34.691 13.505 19.577 20.566 47.254 16.025 70.791-1.925 9.98-6.926 23.571-15.682 29.504-1.527.821-3.058 1.638-4.621 2.389-21.355 10.276-39.714 8.306-61.266.674-2.493-21.518-2.873-43.464-3.526-65.103l-2.092-71.443c2.734-.776 5.448-1.315 8.241-1.819Z"/><path fill="#33332F" d="M383.331 814.16c1.292.195 1.934.414 2.991 1.186.499 1.622.198 2.291-.164 3.922-1.623-.268-2.342-.416-3.56-1.539-.293-1.482.13-2.264.733-3.569Z"/><path fill="#FEE5A7" d="M508.011 430.679c35.982-5.086 37.356 24.511 60.274 30.185 10.659 2.639 18.951-1.959 27.612-7.323 4.278 10.221 8.644 20.509 12.38 30.94-20.733 1.784-37.629 7.094-51.552 23.359-4.817 5.628-8.874 11.888-13.784 17.44-8.291 9.373-17.299 14.124-29.815 14.827-34.39-.279-33.956-25.199-56.379-39.556-7.065-4.523-15.19-7.154-22.931-10.273-7.27-2.929-14.524-6.329-21.267-10.327 4.121-7.831 7.481-16.073 11.731-23.827 6.061 2.842 12.229 5.843 18.853 7.094 20.56 3.883 27.013-13.406 40.895-23.446 7.241-5.236 15.223-7.78 23.983-9.093Z"/><path fill="#B7D5DC" d="M522.246 802.709c.036-.004.072-.01.108-.012 21.355-1.121 44.022 7.442 59.711 21.877 17.282 15.899 24.848 37.733 25.776 60.791-37.074 12.894-110.399 10.869-150.46 6.984-7.186-.97-14.341-1.874-21.481-3.176-25.142-4.585-49.851-11.133-65.158-33.205 32.88 10.998 58.372 3.068 84.668-18.595 10.577-8.714 20.302-18.259 32.45-24.876 10.752-5.858 22.247-8.766 34.386-9.788Z"/><path fill="#33332F" d="M572.303 863.159c1.574.197 2.272.34 3.438 1.377.36 1.504-.148 2.361-.759 3.691-1.473-.258-2.036-.25-3.216-1.215-.397-1.515.028-2.449.537-3.853ZM535.46 834.46c1.552.567 2.155.885 2.986 2.284-.343 1.711-.719 1.964-1.873 3.209-.134-.054-.271-.101-.401-.163-1.471-.697-2.014-1.315-2.588-2.763.449-1.357.801-1.591 1.876-2.567Z"/><path fill="#3D3E3C" d="M455.595 861.494c.74-.014.849-.035 1.662.053 2.204.241 4.249 1.569 5.584 3.299 1.182 1.532 1.728 3.472 1.337 5.387-.486 2.389-2.088 3.597-4.058 4.802-1.072.039-2.183.097-3.242-.097a7.53 7.53 0 0 1-5.02-3.401c-.91-1.449-1.144-3.186-.726-4.839.673-2.655 2.229-3.816 4.463-5.204Z"/><path fill="#F8F6EE" d="M455.857 865.164c.619.131 1.256.248 1.85.475 1.271.484 1.925 1.15 2.531 2.357.181 1.688-.288 2.434-1.109 3.822-1.783-.502-3.204-1.183-4.176-2.814-.145-1.843.125-2.224.904-3.84Z"/><path fill="#B7D5DC" d="M474.498 606.209c13.751-.992 28.503 3.5 40.103 10.73 15.786 9.839 26.98 26.056 30.976 44.179 4.078 18.493.524 38.748-9.823 54.638-11.471 17.616-29.986 29.253-50.374 33.578-2.107.332-4.225.668-6.349.866-15.186 1.416-30.057-3.171-41.812-12.898-15.172-12.555-22.496-30.399-24.184-49.71-1.823-20.859 3.98-43.396 17.738-59.497 11.429-13.375 26.272-20.522 43.725-21.886Z"/><path fill="#33332F" d="M504.305 678.171c1.413.372 2.063.533 3.11 1.629.153 1.605-.162 2.083-.793 3.531-1.26-.396-1.881-.718-2.826-1.645-.396-1.435-.019-2.206.509-3.515ZM463.12 636.274c1.542.154 2.025.132 3.334 1.034.342 1.607.041 2.212-.417 3.762-1.507-.168-2.266-.383-3.408-1.368-.393-1.471-.054-2.077.491-3.428ZM457.671 710.173c1.521.188 2.603.208 3.759 1.338.33 1.504.05 2.029-.393 3.476-1.454-.078-2.097-.079-3.304-.995-.54-1.631-.359-2.166-.062-3.819Z"/><path fill="#FEE5A7" d="M469.158 214.749c2.144.579 4.318 1.051 6.482 1.551 1.084 12.539 1.073 25.422 1.215 38.009.646 57.521-7.447 112.032-27.806 166.017-1.494 3.963-3.433 7.749-5.036 11.669-.546 1.336-1.181 2.715-.604 4.075l1.899.682c.85-.144 1.042-.042 1.697-.684 1.822-1.786 8.839-20.507 10.27-24.485 14.389-40.013 22.52-82.96 24.094-125.443.855-23.093-.091-46.028-.877-69.098 18.843 3.293 38.261 3.112 57.222 1.021-.86 30.284-1.522 60.645.708 90.888 2.625 35.59 13.464 80.645 27.756 113.268 1.697 3.874 3.629 10.076 6.856 12.857 1.273.281 1.248.242 2.408-.37.471-1.172.597-1.746.174-2.973-2.386-6.909-6.472-14.8-9.202-21.947-5.157-13.499-9.155-27.435-12.87-41.388-3.897-16.264-7.425-32.681-9.376-49.307-3.944-33.607-2.696-68.116-1.614-101.877l7.12-.959c-.482 57.291 2.195 107.326 18.897 162.49 6.007 19.84 13.929 38.984 20.625 58.579-2.702 2.265-5.895 4.304-9.257 5.422-11.746 3.905-18.209-8.236-25.447-15.018-4.263-3.995-9.127-7.363-14.409-9.868-21.887-10.38-49.484-5.31-67.607 10.3-6.556 5.647-12.461 14.947-20.868 17.676-7.295 2.368-15.065-.507-21.518-3.895 7.074-16.356 14.198-32.974 19.708-49.923 18.55-57.062 22.892-117.666 19.36-177.269Z"/><path fill="#3D3E3C" d="M503.552 259.551c3.966-.085 10.351-.964 13.53 1.704.569 1.496.285 1.774-.178 3.258-3.839-.078-10.528.626-13.579-1.8-.53-1.455-.243-1.732.227-3.162ZM504.298 276.38c3.992.594 10.373.329 13.523 3.032.503 1.568.165 1.698-.535 3.126-.16.003-.32.01-.48.009-3.747-.016-10.682-.127-13.382-2.864-.28-1.657.079-1.877.874-3.303ZM503.265 329.453c4.188.85 11.786.077 15.082 2.471.46 1.491.206 1.581-.449 3.029-4.118.107-12.349.529-15.431-2.391-.36-1.574.022-1.749.798-3.109ZM501.195 295.542c3.979.028 12.389-1.003 15.493 1.631.44 1.483.215 1.888-.177 3.347-4.315-.119-11.911.748-15.492-1.804-.492-1.421-.232-1.764.176-3.174ZM501.662 348.046c2.883.219 5.685.244 8.572.235 2.63-.008 5.842-.242 7.786 1.692-.036 1.495-.209 1.772-.983 3.07-4.247-.096-12.984.705-16.151-2-.293-1.516.04-1.692.776-2.997ZM502.083 313.078c4.061.43 8.1.082 12.157.4 1.617.126 3.065.248 4.18 1.536.278 1.286-.121 1.884-.649 3.029-4.05-.051-8.224.064-12.25-.367-2.023-.216-3.226-.298-4.546-1.912.085-1.341.324-1.567 1.108-2.686ZM500.959 364.292c5.121.397 12.247-.467 16.817 1.922.703 1.246.482 1.658.321 3.047-4.482.923-12.581.606-16.595-1.395-.907-1.378-.642-1.961-.543-3.574ZM499.733 382.883c4.526.362 15.387-.525 18.623 2.383.031 1.544-.164 1.726-.999 3.052-4.326.096-12.938.535-16.683-1.32-1.292-.639-1.384-.944-1.842-2.202l.901-1.913Z"/><path fill="#B7D5DC" d="M403.541 502.027c12.689 2.596 25.94 5.724 36.888 12.97 6.235 4.126 10.831 9.603 15.728 15.162 13.117 14.888 26.106 24.227 46.118 27.192 24.437 3.62 45.431-6.547 61.51-24.585 6.194-6.948 11.72-14.899 19.306-20.429 10.658-7.769 21.486-8.214 34.08-6.146 17.87 41.192 36.206 81.283 41.515 126.404 2.517 21.394 2.529 42.998 2.462 64.508-4.03.671-7.582 1.693-11.228 3.57-21.459 11.049-42.362 41.488-49.519 63.888-6.95 21.751-6.34 44.75 4.416 65.169 8.332 15.818 22.306 26.554 39.236 31.782-7.752 10.98-20.461 17.77-32.476 23.021-.068-15.038-4.092-30.45-11.453-43.588-10.875-19.412-30.426-33.052-51.655-39.015-21.986-6.174-45.295-2.464-65.024 8.624-14.733 8.63-25.608 21.536-39.639 30.89 4.204-7.468 7.435-15.232 9.135-23.661 4.286-21.254-.787-44.836-11.143-63.645-3.515-6.382-7.948-12.268-12-18.315 8.546 7.744 17.571 13.791 28.899 16.64 18.439 4.638 38.261-.071 54.268-9.779 18.049-10.947 31.34-28.069 36.197-48.719 4.492-19.097 1.436-40.142-9.049-56.807-10.736-17.063-27.384-28.716-47.043-33.126-17.152-3.847-35.386-.941-50.239 8.501-17.126 10.888-27.729 28.685-31.943 48.269-5.472 25.43-.639 47.554 13.412 69.094-5.677-5.106-11.355-9.628-18.11-13.245-14.413-7.719-28.351-10.682-44.193-5.873-.759-79.553 11.576-135.623 41.544-208.751Z"/><path fill="#33332F" d="M575.814 638.691c1.337.459 1.859.622 2.706 1.833.167 1.558-.509 2.406-1.293 3.665-1.257-.654-1.837-.979-2.637-2.208.056-1.615.382-1.958 1.224-3.29ZM525.382 778.638c1.468.351 2.087.473 3.138 1.644.206 1.685-.052 2.006-.746 3.501-.252-.003-.505.023-.755-.009-1.258-.161-1.576-.427-2.391-1.301-.265-1.644.069-2.402.754-3.835ZM596.888 611.084c1.7.24 2.381.423 3.512 1.676.219 1.464-.169 2.284-.734 3.586-1.353-.194-1.993-.256-3.072-1.178-.621-1.464-.113-2.636.294-4.084Z"/><path fill="#3D3E3C" d="M477.38 772.357c2.268-.077 4.162-.254 5.968 1.36.973.87 1.545 1.946 1.469 3.286-.123 2.196-1.412 3.538-2.968 4.912-1.631.152-3.37.22-4.804-.728-1.141-.754-1.621-1.795-1.791-3.113-.279-2.154.955-4.05 2.126-5.717ZM506.075 568.516c.883-.033 1.8-.076 2.678.034 1.903.237 3.808 1.374 4.879 2.965 1.045 1.552 1.251 3.397.791 5.192-.752 2.933-2.606 4.305-5.135 5.713-1.104 0-2.273.026-3.337-.302-1.859-.573-3.476-1.886-4.381-3.61-.887-1.692-.977-3.711-.338-5.501.875-2.45 2.607-3.415 4.843-4.491Z"/><path fill="#F8F6EE" d="M506.957 571.688c.51.178 1.356.402 1.821.722 1.181.811 1.296 1.256 1.681 2.552-.315 1.726-1.011 2.563-2.126 3.89-.472-.153-1.178-.355-1.587-.617-1.208-.772-1.394-1.443-1.765-2.715.246-1.749.844-2.503 1.976-3.832Z"/><path fill="#3D3E3C" d="M618.495 547.728c.622.347 1.232.674 1.768 1.149 3.752 3.325 5.852 10.846 7.419 15.498 11.093 32.924 14.319 68.228 14.718 102.777-1.601-1.444-13.587-84.666-16.119-96.057-1.81-8.143-3.993-15.904-7.786-23.367ZM427.794 528.902c.551 3.745-13.33 35.66-15.548 42.562-8.148 25.35-13.077 50.198-16.483 76.579-.087-.315-.182-.629-.261-.947-1.193-4.763-.672-10.823-.576-15.765.691-35.52 14.308-72.438 32.868-102.429ZM566.769 728.123c1.788.115 3.523.336 5.201 1.006 3.265 1.302 5.948 3.745 7.273 7.028 1.254 3.107 1.185 6.518-.267 9.548-2.048 4.278-5.598 6.115-9.876 7.514-2.864.006-5.604-.499-8.085-1.993-2.928-1.762-5.054-4.642-5.747-8.004-.685-3.327.022-6.833 2-9.6 2.372-3.318 5.605-4.765 9.501-5.499Z"/><path fill="#B7D5DC" d="M566.227 732.036c1.606.032 3.241.127 4.719.818a8.874 8.874 0 0 1 4.587 5.06 8.508 8.508 0 0 1-.412 6.568c-1.338 2.666-3.345 3.706-6.085 4.571-1.629-.011-3.34-.114-4.842-.79-2.12-.954-3.866-2.757-4.655-4.954a8.137 8.137 0 0 1 .449-6.526c1.371-2.648 3.526-3.803 6.239-4.747Z"/><path fill="#3D3E3C" d="M565.804 567.048c2.209-.183 4.622-.241 6.743.48 3.276 1.115 6.02 3.508 7.522 6.626 1.631 3.384 1.81 7.339.386 10.826-1.704 4.174-4.902 6.29-8.945 7.886-3.141.273-6.115.243-8.964-1.281a13.466 13.466 0 0 1-6.562-8.005c-1.016-3.362-.766-7.077.956-10.167 1.993-3.578 5.075-5.235 8.864-6.365Z"/><path fill="#B7D5DC" d="M566.613 571.066c1.647-.084 3.443-.115 5.007.485 2.186.84 4.075 2.761 5.033 4.88 1.036 2.291 1.155 5.014.103 7.322-1.291 2.829-3.327 3.949-6.101 5.069-1.775.04-3.794.045-5.469-.615-2.227-.877-4.185-3.259-4.979-5.469-.785-2.185-.748-4.642.267-6.747 1.339-2.776 3.343-3.905 6.139-4.925Z"/><path fill="#3D3E3C" d="M413.75 513.382c.639 3.37-15.616 43.458-17.961 50.203-10.826 31.154-16.764 59.616-19.262 92.451-.626 8.221-1.446 16.659-1.262 24.904l.02.759-.436-.072-.187-.788c-10.151-44.82 14.912-129.33 39.088-167.457ZM596.283 517.391c.388.257.505.308.861.7 4.095 4.516 6.587 12.55 8.909 18.17 18.806 45.512 26.955 110.415 25.295 159.199-3.708-10.5-5.68-41.551-7.094-54.25-1.686-15.139-4.178-30.222-6.919-45.204-3.372-18.434-7.879-36.532-13.184-54.503-1.92-6.505-7.199-18.083-7.868-24.112Z"/></svg>