<?xml version="1.0" encoding="utf-8" ?>
<svg xmlns="http://www.w3.org/2000/svg" xmlns:xlink="http://www.w3.org/1999/xlink" width="1024" height="1024">
	<path fill="#FDFCF6" d="M0 0L1024 0L1024 1024L0 1024L0 0Z"/>
	<path fill="#FEE5A7" d="M196.262 763.568C200.176 765.909 203.686 769.265 207.219 772.164C214.001 777.73 220.837 783.485 228 788.552C231.187 790.805 243.832 797.89 245.282 800.354L245.019 800.966L245.529 801.067C245.955 801.148 246.393 801.154 246.822 801.213C249.636 801.603 263.313 810.839 266.802 812.791C293.801 827.89 326.244 839.777 357.418 839.912C359.125 865.258 361.335 895.52 381.807 913.217C390.879 921.061 401.418 925.764 412.479 930.09C408.089 932.848 402.015 934.788 397.097 936.331C358.09 948.566 315.754 949.425 278.78 929.954C244.131 911.708 226.004 880.427 214.05 844.562C211.983 838.361 210.827 831.933 208.885 825.745C206.574 823.599 208.86 820.722 207.351 817.997C207.208 817.741 207.052 817.492 206.903 817.24L207.401 816.821L208.493 815.81C204.228 798.534 199.753 781.005 196.262 763.568Z"/>
	<path fill="#FEE5A7" d="M871.891 522.435C912.362 552.991 939.439 593.444 946.481 644.116C950.636 674.016 948.074 705.508 940.615 734.724C940.163 736.495 937.527 744.788 938.627 745.774L940.635 744.675L941.27 744.882L941.043 745.738C940.88 745.83 940.716 745.92 940.555 746.014C939.503 746.628 938.488 747.302 937.467 747.967C933.218 760.395 929.636 772.905 924.614 785.067C921.357 792.953 917.015 800.363 913.782 808.21C930.313 808.478 946.661 808.456 963.183 807.853C965.903 807.753 981.241 806.41 982.119 806.961C975.042 808.272 967.696 808.26 960.517 808.513C944.633 809.075 928.749 808.814 912.859 808.933C907.366 818.316 901.701 827.212 895.289 835.991C895.608 837.112 895.362 836.606 896.003 837.519L894.626 837.283C890.575 840.602 887.538 845.806 884.17 849.847C878.008 857.241 871.41 864.343 864.189 870.722C859.218 875.113 853.544 878.849 847.665 881.904C845.073 883.252 841.803 884.349 839.441 886.006C838.639 886.569 838.294 887.197 837.993 888.102L837.772 887.49L837.77 888.69C837.712 888.364 837.705 888.024 837.597 887.711C837.531 887.518 837.37 887.372 837.256 887.203C832.568 888.238 828.072 889.904 823.472 891.259C816.489 893.316 809.17 894.938 801.97 896.001C755.756 902.825 703.488 890.95 661.905 870.661C666.064 842.097 666.066 812.92 667.276 784.113C668.773 748.502 671.046 712.487 670.006 676.85C678.908 673.983 688.039 668.819 696.527 664.795C747.515 640.619 796.507 606.99 836.112 566.741C849.283 553.355 862.118 538.699 871.642 522.436L871.891 522.435Z"/>
	<path fill="#B7D5DC" d="M560.447 238.045C578.97 233.151 596.108 222.733 611.951 212.279C652.197 185.723 691.987 151.882 742.031 147.522C764.942 145.526 789.095 151.271 808.998 162.757C858.455 191.298 886.076 244.078 900.225 297.566C916.148 357.76 915.017 429.444 890.271 487.168C887.388 493.894 884.511 500.856 880.814 507.174C877.854 512.232 874.491 517.188 871.891 522.435L871.642 522.436C862.118 538.699 849.283 553.355 836.112 566.741C796.507 606.99 747.515 640.619 696.527 664.795C688.039 668.819 678.908 673.983 670.006 676.85C669.335 655.133 668.555 633.482 664.333 612.108C656.452 572.222 639.452 536.941 623.841 499.796C613.473 475.126 603.989 450.041 594.392 425.064C590.424 417.395 587.878 407.163 585.027 398.864C565.866 343.097 560.773 296.79 560.447 238.045Z"/>
	<path fill="#9DAF83" d="M594.392 425.064C627.503 429.585 662.345 435.391 694.749 443.404C744.678 455.751 799.758 475.87 843.418 503.046C850.82 507.652 865.893 516.289 871.642 522.436C862.118 538.699 849.283 553.355 836.112 566.741C796.507 606.99 747.515 640.619 696.527 664.795C688.039 668.819 678.908 673.983 670.006 676.85C669.335 655.133 668.555 633.482 664.333 612.108C656.452 572.222 639.452 536.941 623.841 499.796C613.473 475.126 603.989 450.041 594.392 425.064Z"/>
	<path fill="#B1D1DA" d="M318.996 239.821L319.482 239.568C361.788 217.729 391.782 224.534 433.009 242.908C442.624 247.193 452.499 252.716 462.511 255.808C462.658 255.853 462.807 255.896 462.955 255.939C460.852 318.814 450.694 373.917 424.75 431.658C407.51 471.873 388.534 511.024 375.089 552.806C361.087 596.322 353.863 643.225 352.663 688.875C352.007 713.812 353.216 738.852 354.071 763.772C354.942 789.132 355.554 814.603 357.418 839.912C326.244 839.777 293.801 827.89 266.802 812.791C263.313 810.839 249.636 801.603 246.822 801.213C246.393 801.154 245.955 801.148 245.529 801.067L245.019 800.966L245.282 800.354C243.832 797.89 231.187 790.805 228 788.552C220.837 783.485 214.001 777.73 207.219 772.164C203.686 769.265 200.176 765.909 196.262 763.568C199.753 781.005 204.228 798.534 208.493 815.81L207.401 816.821L206.903 817.24L205.466 817.275C204.897 816.518 204.439 815.968 204.101 815.069L205.857 815.748C205.886 815.56 206.025 814.709 206.011 814.539C205.659 810.274 196.951 788.643 194.987 783.009C191.76 773.752 189.181 764.195 185.574 755.085C129.936 716.101 92.7995 652.667 80.1221 586.553C74.3432 556.416 74.2969 524.606 80.3902 494.506C90.2718 445.693 115.641 418.75 157.676 395.1C170.888 387.666 184.516 381.063 197.569 373.317C212.418 364.506 227.539 353.598 237.344 339.138C231.687 318.895 225.8 299.084 222.231 278.301C220.356 267.382 219.766 256.39 218.284 245.432C220.675 251.494 220.658 258.818 221.386 265.252C222.008 270.749 222.812 276.237 223.809 281.679C227.308 300.797 232.345 319.47 238.015 338.037C245.939 328.905 251.889 317.775 258.036 307.428C262.253 300.331 266.763 293.434 271.283 286.528C266.989 282.868 260.373 278.729 257.329 274.186L257.606 274.095L271.883 285.9C286.77 264.65 296.505 255.599 317.62 240.29C292.168 234.846 265.023 236.767 239.329 239.123C234.899 239.529 228.781 239.299 224.632 240.677C223.809 240.95 223.11 241.106 222.255 241.231L222.543 240.724C227.366 238.304 234.164 238.791 239.498 238.304C266.105 235.875 292.6 234.203 318.996 239.821Z"/>
	<path fill="#FDFCF6" d="M207.401 816.821C203.166 802.014 197.261 787.596 192.315 773.008C190.451 767.511 188.334 761.909 187.093 756.234C189.927 758.61 192.869 760.727 195.915 762.822L196.262 763.568C199.753 781.005 204.228 798.534 208.493 815.81L207.401 816.821Z"/>
	<path fill="#9DAF83" d="M195.915 762.822C194.669 757.066 192.622 751.31 191.178 745.569C187.036 729.092 183.591 712.755 182.075 695.826C176.251 630.777 189.079 574.025 231.603 523.272C271.047 476.197 325.534 452.063 384.499 439.058C397.605 436.168 411.395 432.848 424.75 431.658C407.51 471.873 388.534 511.024 375.089 552.806C361.087 596.322 353.863 643.225 352.663 688.875C352.007 713.812 353.216 738.852 354.071 763.772C354.942 789.132 355.554 814.603 357.418 839.912C326.244 839.777 293.801 827.89 266.802 812.791C263.313 810.839 249.636 801.603 246.822 801.213C246.393 801.154 245.955 801.148 245.529 801.067L245.019 800.966L245.282 800.354C243.832 797.89 231.187 790.805 228 788.552C220.837 783.485 214.001 777.73 207.219 772.164C203.686 769.265 200.176 765.909 196.262 763.568L195.915 762.822Z"/>
	<path fill="#3D3E3C" d="M453.798 127.912C451.051 120.405 449.575 108.066 452.308 100.407C454.626 93.9125 461.428 90.1624 467.4 87.5258C492.646 76.3795 524.53 74.4842 550.372 84.6126C558.123 87.6505 566.807 92.1976 570.151 100.317C573.566 108.61 572.256 121.563 568.908 129.679C570.411 134.766 573.051 139.331 575.144 144.178C579.706 154.741 580.183 166.88 577.911 178.063C575.523 189.813 569.732 203.731 559.389 210.54L560.447 238.045C560.773 296.79 565.866 343.097 585.027 398.864C587.878 407.163 590.424 417.395 594.392 425.064C603.989 450.041 613.473 475.126 623.841 499.796C639.452 536.941 656.452 572.222 664.333 612.108C668.555 633.482 669.335 655.133 670.006 676.85C671.046 712.487 668.773 748.502 667.276 784.113C666.066 812.92 666.064 842.097 661.905 870.661C658.318 889.7 653.579 906.609 636.885 918.07C594.111 947.437 495.14 948.436 445.516 938.974C434.367 936.848 423.143 934.002 412.479 930.09C401.418 925.764 390.879 921.061 381.807 913.217C361.335 895.52 359.125 865.258 357.418 839.912C355.554 814.603 354.942 789.132 354.071 763.772C353.216 738.852 352.007 713.812 352.663 688.875C353.863 643.225 361.087 596.322 375.089 552.806C388.534 511.024 407.51 471.873 424.75 431.658C450.694 373.917 460.852 318.814 462.955 255.939C463.776 241.227 464.056 226.497 464.192 211.764C463.437 211.223 462.697 210.665 461.989 210.063C452.518 202.02 442.365 182.55 441.315 170.102C440.394 159.2 444.436 148.248 451.375 139.954C451.386 135.786 451.697 131.594 453.798 127.912Z"/>
	<path fill="#FEE5A7" d="M452.804 188.298C455.923 189.487 459.008 191.378 462.017 192.867C462.435 196.348 462.943 199.812 463.459 203.28C458.568 200.584 455.171 193.149 452.804 188.298Z"/>
	<path fill="#FEE5A7" d="M568.896 188.055L569.213 188.485C567.665 193.909 563.173 199.218 559.521 203.396C558.076 201.527 559.278 195.65 559.501 193.266C562.708 191.707 565.794 189.817 568.896 188.055Z"/>
	<path fill="#FEE5A7" d="M467.379 194.346C469.548 194.947 471.764 195.408 473.956 195.918C474.089 200.694 474.294 205.46 474.536 210.231C472.748 209.828 470.975 209.24 469.211 208.734C468.54 203.946 467.969 199.145 467.379 194.346Z"/>
	<path fill="#FEE5A7" d="M454.686 144.274C457.274 144.969 459.975 146.416 462.453 147.487C456.908 156.135 452.98 165.154 451.664 175.394C451.545 176.78 451.478 178.028 450.924 179.326C448.695 177.377 447.173 172.762 446.826 169.86C445.784 161.162 449.425 151.098 454.686 144.274Z"/>
	<path fill="#FEE5A7" d="M567.706 141.899L568.502 142.262C571.22 147.265 572.312 153.947 572.884 159.564C573.479 165.406 574.022 176.547 569.668 181.127C568.702 182.143 568.025 182.608 566.664 182.732C566.883 168.07 564.789 160.383 559.047 147.01C562.323 145.666 565.04 144.268 567.706 141.899Z"/>
	<path fill="#FEE5A7" d="M518.974 157.243C521.806 160.692 528.189 187.443 529.363 193.17C526.96 193.487 524.534 193.69 522.124 193.943L512.824 194.357C509.56 180.764 513.013 169.535 518.974 157.243Z"/>
	<path fill="#FEE5A7" d="M466.533 148.307C470.627 149.099 474.699 149.786 478.834 150.321C472.218 162.346 468.068 172.754 466.515 186.428C466.418 187.123 466.544 186.752 465.987 187.477C464.782 187.361 463.804 187.017 462.683 186.582C460.602 185.775 456.931 183.956 456.274 181.571C454.065 173.557 462.919 155.328 466.533 148.307Z"/>
	<path fill="#FEE5A7" d="M551.897 148.704C552.216 148.627 552.525 148.469 552.854 148.472C553.783 148.48 553.848 148.709 554.35 149.322C560.697 157.074 562.629 175.587 561.628 185.34C558.764 186.699 555.789 187.748 552.814 188.834C550.258 175.262 546.42 162.901 541.129 150.196L551.897 148.704Z"/>
	<path fill="#FEE5A7" d="M564.995 104.463L565.443 104.622C565.702 105.056 565.803 105.168 565.938 105.727C566.948 109.909 566.659 117.958 564.45 121.692C560.684 128.057 545.377 130.084 538.573 131.709L537.845 131.097C537.321 125.199 537.875 118.853 538.004 112.916C547.378 111.263 556.345 108.42 564.995 104.463Z"/>
	<path fill="#FEE5A7" d="M484.168 150.948C488.078 151.48 492.054 151.506 495.995 151.633C491.056 165.032 485.983 178.039 484.281 192.326C479.948 191.572 475.642 190.776 471.343 189.848C471.802 175.485 476.979 163.167 484.168 150.948Z"/>
	<path fill="#FEE5A7" d="M457.04 106.049C467.426 110.245 477.598 111.984 488.594 113.698C488.632 120.183 488.918 126.68 489.112 133.162C482.271 132.136 463.494 129.067 459.198 124.178C456.032 120.575 457.017 110.769 457.04 106.049Z"/>
	<path fill="#FEE5A7" d="M533.463 150.717C533.959 150.654 534.416 150.771 534.907 150.847C541.743 159.674 545.791 179.08 548.111 190.232C544.139 191.124 540.148 191.698 536.119 192.264L534.994 192.396C533.19 190.895 527.325 166.548 526.025 162.552C524.801 158.789 523.188 155.156 521.588 151.541L533.463 150.717Z"/>
	<path fill="#FEE5A7" d="M500.344 151.72L516.023 151.552C512.345 160.588 508.008 168.798 506.63 178.631C506.046 182.794 508.114 191.158 507.082 193.879L505.625 194.098C499.968 194.004 494.274 193.475 488.655 192.845C490.85 178.864 496.093 165.18 500.344 151.72Z"/>
	<path fill="#FEE5A7" d="M458.194 130.544C493.263 143.899 528.418 141.107 563.617 130.296C563.874 132.858 563.9 135.361 563.881 137.93C562.868 138.541 561.859 139.088 560.761 139.541C540.569 147.874 476.855 148.489 456.907 139.482C457.013 136.417 457.366 133.503 458.194 130.544Z"/>
	<path fill="#FEE5A7" d="M531.823 113.725C532.261 113.615 533.245 113.652 533.711 113.635C535.738 115.914 534.397 128.732 534.302 132.324C522.082 134.573 509.651 134.68 497.3 133.814C495.938 133.699 494.598 133.517 493.246 133.321C491.616 130.253 492.486 118.288 492.47 114.351C505.71 115.313 518.62 115.019 531.823 113.725Z"/>
	<path fill="#B7D5DC" d="M397.883 913.98C403.176 914.374 413.322 918.628 419.217 920.243C428.119 922.682 437.081 924.28 446.189 925.723C504.963 935.032 565.877 930.292 623.19 914.914L623.121 915.079L624.23 914.834L621.966 916.388C613.523 920.12 605.118 923.315 596.201 925.713C543.912 939.773 446.088 941.723 397.883 913.98Z"/>
	<path fill="#FEE5A7" d="M547.863 195.647C548.928 195.508 548.965 195.277 549.888 195.93C550.999 200.427 550.159 206.116 549.952 210.765C529.727 215.948 502.169 215.103 481.629 211.714L480.355 211.331C478.47 208.799 478.913 200.107 478.736 196.762C501.71 200.74 524.993 199.794 547.863 195.647Z"/>
	<path fill="#FEE5A7" d="M508.592 417.686C524.705 415.179 540.925 421.243 552.461 432.473C558.339 438.195 563.337 446.47 571.919 448.226C578.993 449.673 585.351 446.088 590.929 442.222L594.33 449.113C587.888 452.893 582.093 456.725 574.302 456.66C561.665 456.554 555.706 446.862 547.649 439.003C537.082 428.695 524.651 425.343 510.216 425.558C472.608 429.985 471.21 453.991 453.639 458.412C444.725 460.655 433.252 456.103 425.761 451.43L428.068 446.258C438.567 451.878 450.723 454.533 460.729 446.217C465.884 441.931 470.156 436.607 475.331 432.285C485.087 424.139 496.013 419.343 508.592 417.686Z"/>
	<path fill="#FEE5A7" d="M510.247 83.2131C523.425 82.4041 537.72 84.8173 549.859 90.0094C553.295 91.4792 561.58 94.648 562.859 98.4817C563.165 99.3992 562.893 99.4415 562.466 100.207C559.717 101.852 556.309 102.645 553.253 103.593C539.472 107.87 526.561 109.323 512.232 109.687C494.041 109.433 474.756 108.122 457.712 101.355C458.235 100.513 458.747 99.7255 459.424 98.9958C470.168 87.4043 495.359 83.9941 510.247 83.2131Z"/>
	<path fill="#33332F" d="M539.215 87.8713C540.407 88.0175 541.052 88.3885 542.061 89.0246C542.52 90.0327 542.908 90.5389 542.286 91.6296C541.495 93.0155 540.205 93.1983 538.824 93.6859C538.411 93.656 537.871 93.6338 537.48 93.5208C536.165 93.1408 535.99 92.8375 535.384 91.7186C535.468 91.2332 535.505 90.8388 535.743 90.3815C536.471 88.9824 537.845 88.4429 539.215 87.8713Z"/>
	<path fill="#33332F" d="M530.071 99.6518C530.243 99.6292 530.415 99.6032 530.587 99.5841C533.539 99.2574 537.494 98.5951 539.944 100.54C540.492 101.954 540.259 102.312 539.919 103.751C537.548 104.119 533.344 104.544 531.289 102.95C530.11 102.036 530.235 100.988 530.071 99.6518Z"/>
	<path fill="#33332F" d="M479.057 96.5402C481.03 96.4222 483.095 96.2991 485.069 96.3799C486.511 96.4389 487.489 96.6787 488.524 97.7462C488.763 99.2588 488.456 99.5892 487.83 100.947C487.113 100.975 486.395 100.985 485.677 100.992C483.205 101.018 480.213 101.416 478.306 99.5544C478.056 98.0394 478.303 97.9104 479.057 96.5402Z"/>
	<path fill="#33332F" d="M501.364 87.2085C501.652 87.2061 501.946 87.1443 502.228 87.2014C503.354 87.4293 503.592 87.9521 503.958 88.8832C503.794 89.6988 503.831 90.2104 503.253 90.8551C501.196 93.1524 497.836 92.7506 495.005 93.0139C494.498 92.9659 494.323 92.9698 493.782 92.8027C492.868 92.5199 491.882 92.1087 491.506 91.238L492.41 89.8031C495.486 87.9671 497.869 87.5165 501.364 87.2085Z"/>
	<path fill="#33332F" d="M529.052 93.6857L530.748 93.5444C531.573 93.8495 531.854 94.0365 532.459 94.7221C533.156 95.5106 532.942 95.4974 532.86 96.4546C529.313 99.763 524.541 98.7047 520.269 99.6802C518.701 100.038 517.459 102.352 516.481 103.594C514.151 104.786 512.283 104.306 509.886 103.595C507.538 103.135 506.529 102.685 504.93 100.871C504.81 99.9527 504.698 100.351 505.181 99.6559C508.829 97.7281 510.298 99.4967 513.86 99.5114C516.609 99.5227 519.543 96.8526 521.421 95.054C523.914 94.427 526.516 94.1048 529.052 93.6857Z"/>
	<path fill="#FEE5A7" d="M410.854 485.021C416.883 488.019 422.989 490.939 429.205 493.532C440.427 498.212 452.088 501.553 460.997 510.291C468.893 518.036 474.308 528.052 482.817 535.202C491.843 542.785 504.63 546.111 516.271 545.015C538.749 542.898 547.259 526.997 560.346 511.445C573.784 495.476 590.075 490.71 610.215 488.989C611.92 492.524 614.169 496.616 614.746 500.503L614.001 501.002C613.066 500.881 612.134 500.794 611.194 500.72C577.051 498.042 573.815 519.091 552.039 537.564C528.891 557.2 495.055 558.552 471.506 538.633C461.485 530.158 454.229 518.742 443.424 511.188C432.76 503.733 418.197 498.826 405.286 497.744L410.854 485.021Z"/>
	<path fill="#B7D5DC" d="M653.338 862.872C653.36 862.979 653.392 863.085 653.406 863.194C654.741 873.291 646.362 895.941 639.973 904.061C639.233 904.411 638.514 904.745 637.748 905.036C571.773 930.17 454.158 933.588 388.94 904.393C380.563 900.643 377.568 894.922 374.47 886.794C372.364 880.762 370.701 874.626 369.472 868.356C373.069 872.024 376.866 875.415 381.048 878.405C386.419 882.246 392.286 885.545 398.418 888.003C445.192 906.755 539.773 907.385 589.072 898.925C615.309 894.422 637.594 885.18 653.338 862.872Z"/>
	<path fill="#B7D5DC" d="M659.217 699.489L660.558 699.626C660.822 700.19 660.917 700.321 661.043 701.021C661.998 706.316 660.779 713.363 660.65 718.82C660.114 741.507 658.847 764.182 657.929 786.856L656.747 820.285C656.544 826.865 656.985 834.357 655.574 840.76C654.331 846.399 649.347 853.125 646.195 857.981C635.136 854.88 626.384 849.403 618.19 841.424C610.971 834.037 606.148 825.37 603.148 815.525C595.913 791.783 601.01 767.418 612.503 745.921C621.775 728.58 639.971 705.333 659.217 699.489Z"/>
	<path fill="#33332F" d="M629.718 802.222C631.486 802.404 632.345 802.622 633.493 803.971C633.676 805.526 633.136 806.391 632.442 807.714C630.994 807.334 630.377 807.209 629.375 806.011C628.957 804.527 629.28 803.632 629.718 802.222Z"/>
	<path fill="#B7D5DC" d="M370.276 712.147C374.696 711.575 379.124 711.667 383.511 712.463C404.511 716.27 421.324 729.942 433.197 747.154C446.702 766.731 453.763 794.408 449.222 817.945C447.297 827.925 442.296 841.516 433.54 847.449C432.013 848.27 430.482 849.087 428.919 849.838C407.564 860.114 389.205 858.144 367.653 850.512C365.16 828.994 364.78 807.048 364.127 785.409L362.035 713.966C364.769 713.19 367.483 712.651 370.276 712.147Z"/>
	<path fill="#33332F" d="M383.331 814.16C384.623 814.355 385.265 814.574 386.322 815.346C386.821 816.968 386.52 817.637 386.158 819.268C384.535 819 383.816 818.852 382.598 817.729C382.305 816.247 382.728 815.465 383.331 814.16Z"/>
	<path fill="#FEE5A7" d="M508.011 430.679C543.993 425.593 545.367 455.19 568.285 460.864C578.944 463.503 587.236 458.905 595.897 453.541C600.175 463.762 604.541 474.05 608.277 484.481C587.544 486.265 570.648 491.575 556.725 507.84C551.908 513.468 547.851 519.728 542.941 525.28C534.65 534.653 525.642 539.404 513.126 540.107C478.736 539.828 479.17 514.908 456.747 500.551C449.682 496.028 441.557 493.397 433.816 490.278C426.546 487.349 419.292 483.949 412.549 479.951C416.67 472.12 420.03 463.878 424.28 456.124C430.341 458.966 436.509 461.967 443.133 463.218C463.693 467.101 470.146 449.812 484.028 439.772C491.269 434.536 499.251 431.992 508.011 430.679Z"/>
	<path fill="#B7D5DC" d="M522.246 802.709C522.282 802.705 522.318 802.699 522.354 802.697C543.709 801.576 566.376 810.139 582.065 824.574C599.347 840.473 606.913 862.307 607.841 885.365C570.767 898.259 497.442 896.234 457.381 892.349C450.195 891.379 443.04 890.475 435.9 889.173C410.758 884.588 386.049 878.04 370.742 855.968C403.622 866.966 429.114 859.036 455.41 837.373C465.987 828.659 475.712 819.114 487.86 812.497C498.612 806.639 510.107 803.731 522.246 802.709Z"/>
	<path fill="#33332F" d="M572.303 863.159C573.877 863.356 574.575 863.499 575.741 864.536C576.101 866.04 575.593 866.897 574.982 868.227C573.509 867.969 572.946 867.977 571.766 867.012C571.369 865.497 571.794 864.563 572.303 863.159Z"/>
	<path fill="#33332F" d="M535.46 834.46C537.012 835.027 537.615 835.345 538.446 836.744C538.103 838.455 537.727 838.708 536.573 839.953C536.439 839.899 536.302 839.852 536.172 839.79C534.701 839.093 534.158 838.475 533.584 837.027C534.033 835.67 534.385 835.436 535.46 834.46Z"/>
	<path fill="#3D3E3C" d="M455.595 861.494C456.335 861.48 456.444 861.459 457.257 861.547C459.461 861.788 461.506 863.116 462.841 864.846C464.023 866.378 464.569 868.318 464.178 870.233C463.692 872.622 462.09 873.83 460.12 875.035C459.048 875.074 457.937 875.132 456.878 874.938C454.805 874.559 452.979 873.324 451.858 871.537C450.948 870.088 450.714 868.351 451.132 866.698C451.805 864.043 453.361 862.882 455.595 861.494Z"/>
	<path fill="#F8F6EE" d="M455.857 865.164C456.476 865.295 457.113 865.412 457.707 865.639C458.978 866.123 459.632 866.789 460.238 867.996C460.419 869.684 459.95 870.43 459.129 871.818C457.346 871.316 455.925 870.635 454.953 869.004C454.808 867.161 455.078 866.78 455.857 865.164Z"/>
	<path fill="#B7D5DC" d="M474.498 606.209C488.249 605.217 503.001 609.709 514.601 616.939C530.387 626.778 541.581 642.995 545.577 661.118C549.655 679.611 546.101 699.866 535.754 715.756C524.283 733.372 505.768 745.009 485.38 749.334C483.273 749.666 481.155 750.002 479.031 750.2C463.845 751.616 448.974 747.029 437.219 737.302C422.047 724.747 414.723 706.903 413.035 687.592C411.212 666.733 417.015 644.196 430.773 628.095C442.202 614.72 457.045 607.573 474.498 606.209Z"/>
	<path fill="#33332F" d="M504.305 678.171C505.718 678.543 506.368 678.704 507.415 679.8C507.568 681.405 507.253 681.883 506.622 683.331C505.362 682.935 504.741 682.613 503.796 681.686C503.4 680.251 503.777 679.48 504.305 678.171Z"/>
	<path fill="#33332F" d="M463.12 636.274C464.662 636.428 465.145 636.406 466.454 637.308C466.796 638.915 466.495 639.52 466.037 641.07C464.53 640.902 463.771 640.687 462.629 639.702C462.236 638.231 462.575 637.625 463.12 636.274Z"/>
	<path fill="#33332F" d="M457.671 710.173C459.192 710.361 460.274 710.381 461.43 711.511C461.76 713.015 461.48 713.54 461.037 714.987C459.583 714.909 458.94 714.908 457.733 713.992C457.193 712.361 457.374 711.826 457.671 710.173Z"/>
	<path fill="#FEE5A7" d="M469.158 214.749C471.302 215.328 473.476 215.8 475.64 216.3C476.724 228.839 476.713 241.722 476.855 254.309C477.501 311.83 469.408 366.341 449.049 420.326C447.555 424.289 445.616 428.075 444.013 431.995C443.467 433.331 442.832 434.71 443.409 436.07L445.308 436.752C446.158 436.608 446.35 436.71 447.005 436.068C448.827 434.282 455.844 415.561 457.275 411.583C471.664 371.57 479.795 328.623 481.369 286.14C482.224 263.047 481.278 240.112 480.492 217.042C499.335 220.335 518.753 220.154 537.714 218.063C536.854 248.347 536.192 278.708 538.422 308.951C541.047 344.541 551.886 389.596 566.178 422.219C567.875 426.093 569.807 432.295 573.034 435.076C574.307 435.357 574.282 435.318 575.442 434.706C575.913 433.534 576.039 432.96 575.616 431.733C573.23 424.824 569.144 416.933 566.414 409.786C561.257 396.287 557.259 382.351 553.544 368.398C549.647 352.134 546.119 335.717 544.168 319.091C540.224 285.484 541.472 250.975 542.554 217.214L549.674 216.255C549.192 273.546 551.869 323.581 568.571 378.745C574.578 398.585 582.5 417.729 589.196 437.324C586.494 439.589 583.301 441.628 579.939 442.746C568.193 446.651 561.73 434.51 554.492 427.728C550.229 423.733 545.365 420.365 540.083 417.86C518.196 407.48 490.599 412.55 472.476 428.16C465.92 433.807 460.015 443.107 451.608 445.836C444.313 448.204 436.543 445.329 430.09 441.941C437.164 425.585 444.288 408.967 449.798 392.018C468.348 334.956 472.69 274.352 469.158 214.749Z"/>
	<path fill="#3D3E3C" d="M503.552 259.551C507.518 259.466 513.903 258.587 517.082 261.255C517.651 262.751 517.367 263.029 516.904 264.513C513.065 264.435 506.376 265.139 503.325 262.713C502.795 261.258 503.082 260.981 503.552 259.551Z"/>
	<path fill="#3D3E3C" d="M504.298 276.38C508.29 276.974 514.671 276.709 517.821 279.412C518.324 280.98 517.986 281.11 517.286 282.538C517.126 282.541 516.966 282.548 516.806 282.547C513.059 282.531 506.124 282.42 503.424 279.683C503.144 278.026 503.503 277.806 504.298 276.38Z"/>
	<path fill="#3D3E3C" d="M503.265 329.453C507.453 330.303 515.051 329.53 518.347 331.924C518.807 333.415 518.553 333.505 517.898 334.953C513.78 335.06 505.549 335.482 502.467 332.562C502.107 330.988 502.489 330.813 503.265 329.453Z"/>
	<path fill="#3D3E3C" d="M501.195 295.542C505.174 295.57 513.584 294.539 516.688 297.173C517.128 298.656 516.903 299.061 516.511 300.52C512.196 300.401 504.6 301.268 501.019 298.716C500.527 297.295 500.787 296.952 501.195 295.542Z"/>
	<path fill="#3D3E3C" d="M501.662 348.046C504.545 348.265 507.347 348.29 510.234 348.281C512.864 348.273 516.076 348.039 518.02 349.973C517.984 351.468 517.811 351.745 517.037 353.043C512.79 352.947 504.053 353.748 500.886 351.043C500.593 349.527 500.926 349.351 501.662 348.046Z"/>
	<path fill="#3D3E3C" d="M502.083 313.078C506.144 313.508 510.183 313.16 514.24 313.478C515.857 313.604 517.305 313.726 518.42 315.014C518.698 316.3 518.299 316.898 517.771 318.043C513.721 317.992 509.547 318.107 505.521 317.676C503.498 317.46 502.295 317.378 500.975 315.764C501.06 314.423 501.299 314.197 502.083 313.078Z"/>
	<path fill="#3D3E3C" d="M500.959 364.292C506.08 364.689 513.206 363.825 517.776 366.214C518.479 367.46 518.258 367.872 518.097 369.261C513.615 370.184 505.516 369.867 501.502 367.866C500.595 366.488 500.86 365.905 500.959 364.292Z"/>
	<path fill="#3D3E3C" d="M499.733 382.883C504.259 383.245 515.12 382.358 518.356 385.266C518.387 386.81 518.192 386.992 517.357 388.318C513.031 388.414 504.419 388.853 500.674 386.998C499.382 386.359 499.29 386.054 498.832 384.796L499.733 382.883Z"/>
	<path fill="#B7D5DC" d="M403.541 502.027C416.23 504.623 429.481 507.751 440.429 514.997C446.664 519.123 451.26 524.6 456.157 530.159C469.274 545.047 482.263 554.386 502.275 557.351C526.712 560.971 547.706 550.804 563.785 532.766C569.979 525.818 575.505 517.867 583.091 512.337C593.749 504.568 604.577 504.123 617.171 506.191C635.041 547.383 653.377 587.474 658.686 632.595C661.203 653.989 661.215 675.593 661.148 697.103C657.118 697.774 653.566 698.796 649.92 700.673C628.461 711.722 607.558 742.161 600.401 764.561C593.451 786.312 594.061 809.311 604.817 829.73C613.149 845.548 627.123 856.284 644.053 861.512C636.301 872.492 623.592 879.282 611.577 884.533C611.509 869.495 607.485 854.083 600.124 840.945C589.249 821.533 569.698 807.893 548.469 801.93C526.483 795.756 503.174 799.466 483.445 810.554C468.712 819.184 457.837 832.09 443.806 841.444C448.01 833.976 451.241 826.212 452.941 817.783C457.227 796.529 452.154 772.947 441.798 754.138C438.283 747.756 433.85 741.87 429.798 735.823C438.344 743.567 447.369 749.614 458.697 752.463C477.136 757.101 496.958 752.392 512.965 742.684C531.014 731.737 544.305 714.615 549.162 693.965C553.654 674.868 550.598 653.823 540.113 637.158C529.377 620.095 512.729 608.442 493.07 604.032C475.918 600.185 457.684 603.091 442.831 612.533C425.705 623.421 415.102 641.218 410.888 660.802C405.416 686.232 410.249 708.356 424.3 729.896C418.623 724.79 412.945 720.268 406.19 716.651C391.777 708.932 377.839 705.969 361.997 710.778C361.238 631.225 373.573 575.155 403.541 502.027Z"/>
	<path fill="#33332F" d="M575.814 638.691C577.151 639.15 577.673 639.313 578.52 640.524C578.687 642.082 578.011 642.93 577.227 644.189C575.97 643.535 575.39 643.21 574.59 641.981C574.646 640.366 574.972 640.023 575.814 638.691Z"/>
	<path fill="#33332F" d="M525.382 778.638C526.85 778.989 527.469 779.111 528.52 780.282C528.726 781.967 528.468 782.288 527.774 783.783C527.522 783.78 527.269 783.806 527.019 783.774C525.761 783.613 525.443 783.347 524.628 782.473C524.363 780.829 524.697 780.071 525.382 778.638Z"/>
	<path fill="#33332F" d="M596.888 611.084C598.588 611.324 599.269 611.507 600.4 612.76C600.619 614.224 600.231 615.044 599.666 616.346C598.313 616.152 597.673 616.09 596.594 615.168C595.973 613.704 596.481 612.532 596.888 611.084Z"/>
	<path fill="#3D3E3C" d="M477.38 772.357C479.648 772.28 481.542 772.103 483.348 773.717C484.321 774.587 484.893 775.663 484.817 777.003C484.694 779.199 483.405 780.541 481.849 781.915C480.218 782.067 478.479 782.135 477.045 781.187C475.904 780.433 475.424 779.392 475.254 778.074C474.975 775.92 476.209 774.024 477.38 772.357Z"/>
	<path fill="#3D3E3C" d="M506.075 568.516C506.958 568.483 507.875 568.44 508.753 568.55C510.656 568.787 512.561 569.924 513.632 571.515C514.677 573.067 514.883 574.912 514.423 576.707C513.671 579.64 511.817 581.012 509.288 582.42C508.184 582.42 507.015 582.446 505.951 582.118C504.092 581.545 502.475 580.232 501.57 578.508C500.683 576.816 500.593 574.797 501.232 573.007C502.107 570.557 503.839 569.592 506.075 568.516Z"/>
	<path fill="#F8F6EE" d="M506.957 571.688C507.467 571.866 508.313 572.09 508.778 572.41C509.959 573.221 510.074 573.666 510.459 574.962C510.144 576.688 509.448 577.525 508.333 578.852C507.861 578.699 507.155 578.497 506.746 578.235C505.538 577.463 505.352 576.792 504.981 575.52C505.227 573.771 505.825 573.017 506.957 571.688Z"/>
	<path fill="#3D3E3C" d="M618.495 547.728C619.117 548.075 619.727 548.402 620.263 548.877C624.015 552.202 626.115 559.723 627.682 564.375C638.775 597.299 642.001 632.603 642.4 667.152C640.799 665.708 628.813 582.486 626.281 571.095C624.471 562.952 622.288 555.191 618.495 547.728Z"/>
	<path fill="#3D3E3C" d="M427.794 528.902C428.345 532.647 414.464 564.562 412.246 571.464C404.098 596.814 399.169 621.662 395.763 648.043C395.676 647.728 395.581 647.414 395.502 647.096C394.309 642.333 394.83 636.273 394.926 631.331C395.617 595.811 409.234 558.893 427.794 528.902Z"/>
	<path fill="#3D3E3C" d="M566.769 728.123C568.557 728.238 570.292 728.459 571.97 729.129C575.235 730.431 577.918 732.874 579.243 736.157C580.497 739.264 580.428 742.675 578.976 745.705C576.928 749.983 573.378 751.82 569.1 753.219C566.236 753.225 563.496 752.72 561.015 751.226C558.087 749.464 555.961 746.584 555.268 743.222C554.583 739.895 555.29 736.389 557.268 733.622C559.64 730.304 562.873 728.857 566.769 728.123Z"/>
	<path fill="#B7D5DC" d="M566.227 732.036C567.833 732.068 569.468 732.163 570.946 732.854C573.072 733.849 574.757 735.695 575.533 737.914C576.28 740.051 576.136 742.457 575.121 744.482C573.783 747.148 571.776 748.188 569.036 749.053C567.407 749.042 565.696 748.939 564.194 748.263C562.074 747.309 560.328 745.506 559.539 743.309C558.766 741.153 558.935 738.816 559.988 736.783C561.359 734.135 563.514 732.98 566.227 732.036Z"/>
	<path fill="#3D3E3C" d="M565.804 567.048C568.013 566.865 570.426 566.807 572.547 567.528C575.823 568.643 578.567 571.036 580.069 574.154C581.7 577.538 581.879 581.493 580.455 584.98C578.751 589.154 575.553 591.27 571.51 592.866C568.369 593.139 565.395 593.109 562.546 591.585C559.373 589.887 557.027 587.03 555.984 583.58C554.968 580.218 555.218 576.503 556.94 573.413C558.933 569.835 562.015 568.178 565.804 567.048Z"/>
	<path fill="#B7D5DC" d="M566.613 571.066C568.26 570.982 570.056 570.951 571.62 571.551C573.806 572.391 575.695 574.312 576.653 576.431C577.689 578.722 577.808 581.445 576.756 583.753C575.465 586.582 573.429 587.702 570.655 588.822C568.88 588.862 566.861 588.867 565.186 588.207C562.959 587.33 561.001 584.948 560.207 582.738C559.422 580.553 559.459 578.096 560.474 575.991C561.813 573.215 563.817 572.086 566.613 571.066Z"/>
	<path fill="#3D3E3C" d="M413.75 513.382C414.389 516.752 398.134 556.84 395.789 563.585C384.963 594.739 379.025 623.201 376.527 656.036C375.901 664.257 375.081 672.695 375.265 680.94L375.285 681.699L374.849 681.627L374.662 680.839C364.511 636.019 389.574 551.509 413.75 513.382Z"/>
	<path fill="#3D3E3C" d="M596.283 517.391C596.671 517.648 596.788 517.699 597.144 518.091C601.239 522.607 603.731 530.641 606.053 536.261C624.859 581.773 633.008 646.676 631.348 695.46C627.64 684.96 625.668 653.909 624.254 641.21C622.568 626.071 620.076 610.988 617.335 596.006C613.963 577.572 609.456 559.474 604.151 541.503C602.231 534.998 596.952 523.42 596.283 517.391Z"/>
</svg>
