<svg xmlns="http://www.w3.org/2000/svg" width="1024" height="1024"><path fill="#FDFCF6" d="M0 0h1024v1024H0V0Z"/><path fill="#3D3E3C" d="M733.608 802.227c.461.023.922.034 1.38.086 1.438.166 2.014.606 2.829 1.692.088 1.591-.522 2.346-1.369 3.597-.488-.012-1.247-.009-1.706-.127-1.358-.346-1.621-.804-2.273-1.914.01-1.512.377-2.09 1.139-3.334ZM322.999 882.872l.286.018c1.045.049 1.709.166 2.669.63 4.972 2.405 13.736 8.845 15.681 13.952-3.768-2.191-17.203-11.173-18.636-14.6Z"/><path fill="#3A3A35" d="M289.035 854.952c7.53-1.957 13.555 4.102 20.334 5.822 15.381 7.175 31.698 18.504 42.636 31.44 2.553 3.019 9.693 11.586 9.376 15.534-.77-.188-1.611-1.743-2.028-2.401-3.999-6.309-8.683-11.783-14.047-16.965-13.448-12.99-28.543-23.531-46.317-29.633-3.362-1.152-6.795-1.876-10.048-3.359l.094-.438Z"/><path fill="#3D3E3C" d="M353.278 861.835c-10.145-14.823-24.401-28.023-39.33-38.033-3.626-2.432-18.02-9.794-19.684-11.246-.268-.233-.323-.631-.484-.947l.377-.691c2.742-.112 5.852 1.873 8.247 3.107 12.557 6.47 23.54 14.447 33.891 24.005 7.952 7.342 14.662 15.259 20.797 24.139 10.818 13.584 17.85 33.015 22.357 49.617 1.131 4.168 6.651 31.205 5.329 33.52-1.58-3.742-1.267-7.595-2.386-11.411-1.69-5.764-2.533-11.882-4.057-17.729-4.702-18.031-12.698-39.325-24.673-53.874-.127-.154-.256-.305-.384-.457Z"/><path fill="#9DAF83" d="M387.931 717.532c.108 48.344-1.364 96.614-2.422 144.942-9.397-.868-18.997-.453-28.417-.305-6.135-8.88-12.845-16.797-20.797-24.139-10.351-9.558-21.334-17.535-33.891-24.005-2.395-1.234-5.505-3.219-8.247-3.107l-.377.691c.161.316.216.714.484.947 1.664 1.452 16.058 8.814 19.684 11.246 14.929 10.01 29.185 23.21 39.33 38.033-9.276.004-18.624.209-27.893-.12-5.28-.188-10.768-1.217-16.016-.941-6.779-1.72-12.804-7.779-20.334-5.822l1.079-.988c-.347-.487-17.784-7.282-19.919-8.254-10.378-4.728-24.279-11.792-28.308-23.349-2.542-7.292-.722-15.263 2.563-21.998 16.228-33.273 70.31-54.809 102.865-67.588 13.465-5.285 26.933-10.541 40.616-15.243Z"/><path fill="#FEE5A7" d="M712.775 801.388c-1.42 3.123-4.152 8.13-3.349 11.619.598 2.603 4.63 4.613 6.841 5.632 6.659 3.067 14.746 1.156 21.84.512 28.856-2.618 68.297-10.357 96.204-7.164 10.643 1.218 21.241 4.244 30.554 9.615 7.767 4.48 14.858 10.834 18.098 19.396 2.405 6.357 2.775 13.552-.008 19.855-5.661 12.818-20.638 20.682-33.097 25.294-47.256 17.492-103.016 6.582-149.383-8.657-14.037-4.614-27.808-11.188-42.012-15.023-5.745 5.655-12.306 21.247-14.77 29.122-.948 3.027-1.418 7.635-3.03 10.232l-.598-.618c2.894-17.199 6.864-25.658 15.685-40.519-2.694-1.163-5.193-3.921-7.954-5.454-.18 5.545-.284 11.053-.164 16.601l-.381.067c-2.245-4.17-.996-12.738-.584-17.447-4.722-3.186-9.483-6.283-13.809-10.005.255-6.553 1.124-13.064 1.091-19.634.447-.888.445-1.485 1.424-1.835 2.475-.883 6.909-.201 9.663-.435 4.877-.413 9.719-1.134 14.495-2.212 18.234-4.112 35.978-11.909 53.244-18.942Z"/><path fill="#3D3E3C" d="M655.75 860.684c13.888-18.544 30.292-34.546 54.279-37.909 1.389-.195 3.044-.597 4.353.018-1.191 1.153-4.412 1.173-6.132 1.517-5.31 1.063-10.538 2.995-15.416 5.323-9.857 4.704-17.984 11.242-25.553 19.032 3.209-.861 6.881-4.97 9.775-6.865 8.525-5.581 24.148-8.998 33.73-4.633l.325.566c-4.53.937-9.547-.029-14.176.2-12.25.607-24.886 10.169-33.651 17.894 3.732-.774 10.397-1.934 13.666.341 1.113.775 1.105 1.332 1.221 2.546-4.156.837-8.589-7.281-19.708 3.753-5.745 5.655-12.306 21.247-14.77 29.122-.948 3.027-1.418 7.635-3.03 10.232l-.598-.618c2.894-17.199 6.864-25.658 15.685-40.519Z"/><path fill="#FEE5A7" d="M219.584 405.641c-23.773-12.655-44.803-34.212-57.675-57.669-18.587-33.874-22.167-73.274-11.288-110.223 10.467-35.548 35.567-66.861 68.157-84.57 34.938-18.984 76.396-23.833 114.585-12.324 36.503 11.001 67.082 36.678 85.021 70.24 15.701 29.376 22.609 69.884 12.704 102.121l-.388.382c-14.029 9.444-26.594 20.739-41.357 29.189-15.007 8.589-31.262 15.464-47.327 21.787-39.977 15.732-81.351 26.906-121.847 41.11l-.585-.043Z"/><path fill="#B1D1DA" d="M431.088 313.216c4.515-2.235 8.828-5.971 12.937-8.938 7.091-5.12 14.131-10.111 21.636-14.614-2.545 18.896-7.55 36.084-19.546 51.333-5.741 7.298-12.125 14.069-17.785 21.439-11.338 14.766-21 31.17-27.464 48.656-5 13.528-8.734 27.813-10.209 42.181-1.452 14.143-1.242 28.255-1.153 42.449.122 19.23.502 38.469.413 57.697-.253 54.714-1.896 109.385-1.986 164.113-13.683 4.702-27.151 9.958-40.616 15.243-32.555 12.779-86.637 34.315-102.865 67.588-3.285 6.735-5.105 14.706-2.563 21.998 4.029 11.557 17.93 18.621 28.308 23.349 2.135.972 19.572 7.767 19.919 8.254l-1.079.988-.094.438c3.253 1.483 6.686 2.207 10.048 3.359-7.961 2.201-43.431-7.929-51.921-10.905-62.546-21.923-121.803-83.34-150.153-142.276-25.38-52.762-34.816-114.442-14.934-170.563 13.976-39.451 34.413-62.426 67.254-87.314 21.984-16.659 45.534-30.103 70.349-42.05l.585.043c40.496-14.204 81.87-25.378 121.847-41.11 16.065-6.323 32.32-13.198 47.327-21.787 14.763-8.45 27.328-19.745 41.357-29.189l.388-.382Z"/><path fill="#3A3A35" d="M286.601 694.733c1.412.129 2.011.19 3.178 1.092.321 1.563.079 2.039-.387 3.529-1.074-.248-1.673-.591-2.562-1.236-.591-1.481-.495-1.79-.229-3.385Z"/><path fill="#3D3E3C" d="M266.327 673.211c1.478.476 1.84.561 2.879 1.687-.053 1.582-.455 2.036-1.256 3.369-1.075-.366-1.653-.822-2.495-1.576-.224-1.638.158-2.028.872-3.48Z"/><path fill="#3A3A35" d="M333.899 668.703c1.361.757 1.901.867 2.63 2.28-.13 1.405-.98 2.146-1.874 3.145-1.148-.699-1.976-1.122-2.566-2.398.312-1.546.777-1.877 1.81-3.027Z"/><path fill="#3D3E3C" d="M311.48 691.814c1.236.541 1.8.727 2.504 1.948.09 1.543-.58 2.312-1.417 3.513-.21-.059-.428-.095-.63-.176-1.195-.478-1.4-.776-1.999-1.842.11-1.695.517-2.181 1.542-3.443ZM297.251 730.7c1.574.294 1.794.372 2.983 1.436.578 1.504.42 2.183.109 3.703-1.676-.181-2.366-.327-3.58-1.467-.367-1.592-.086-2.212.488-3.672Z"/><path fill="#9DAF83" d="M220.169 405.684c40.496-14.204 81.87-25.378 121.847-41.11 16.065-6.323 32.32-13.198 47.327-21.787 14.763-8.45 27.328-19.745 41.357-29.189-1.129 15.578-16.21 40.894-25.588 53.354-5.196 6.905-11.093 13.48-17.625 19.152-29.628 25.727-68.136 39.892-107.501 36.946-19.641-1.469-42.893-7.058-59.817-17.366Z"/><path fill="#3D3E3C" d="M465.489 111.763c-1.82-3.85-2.829-8.095-1.877-12.339.987-4.398 4.052-7.594 7.857-9.807 16.13-9.384 48.047-8.885 65.75-4.21 6.669 1.761 17.358 5.318 20.823 11.742 2.576 4.773 1.409 10.041.078 14.977 1.121 3.706 2.201 7.388 2.809 11.22 1.808 11.394.382 22.776-6.475 32.256 2.138 12.314 2.192 25.346 2.474 37.809l.963 33.46c.797 30.535-.285 72.144 11.926 100.201 5.37 12.337 13.03 22.911 21.284 33.421 13.757 17.516 25.831 34.371 32.742 55.969 10.231 31.971 9.853 66.974 10.206 100.186l.893 50.375 1.046 86.001c.06 15.11.584 30.498-.167 45.591-.617 6.482-1.019 85.653-.083 87.694l1.517-1.093c.296 1.849-1.9 3.745-2.135 5.713-.363 3.038-.124 6.387-.169 9.456-.117 8.037-.103 16.45-1.002 24.427.033 6.57-.836 13.081-1.091 19.634-1.148 16.781-1.908 51.575-7.901 65.738-2.608 6.165-6.654 11.181-11.672 15.567-30.669 26.804-90.544 28.061-129.566 25.231-27.066-1.962-65.94-7.41-84.38-28.995-13.27-15.533-14.003-39.96-13.83-59.513 1.058-48.328 2.53-96.598 2.422-144.942.09-54.728 1.733-109.399 1.986-164.113.089-19.228-.291-38.467-.413-57.697-.089-14.194-.299-28.306 1.153-42.449 1.475-14.368 5.209-28.653 10.209-42.181 6.464-17.486 16.126-33.89 27.464-48.656 5.66-7.37 12.044-14.141 17.785-21.439 11.996-15.249 17.001-32.437 19.546-51.333 1.408-13.463 1.149-27.353 1.325-40.882.404-31.041-.311-62.522 1.943-93.48-4.601-3.414-7.407-7.337-8.822-12.989-2.582-10.316.114-21.562 5.382-30.55Z"/><path fill="#FEE5A7" d="M547.312 259.588c.415-.059.873.099 1.282.181.239.563.47 1.057.613 1.663.305 1.293.22 2.673-.577 3.784-.968 1.347-2.647 1.121-4.141 1.285-.501-.033-1.084-.216-1.577-.325l-.8-1.339c-.066-1.323.08-2.338.904-3.441 1.024-1.372 2.743-1.428 4.296-1.808Z"/><path fill="#B7D5DC" d="M543.466 238.675c1.651-.849 3.228-1.435 5.012-1.947.099 5.679.956 12.261.066 17.786-1.525.733-3.488.639-5.168.731l.09-16.57Z"/><path fill="#FDFCF6" d="M544.733 101.836c1.931-.64 6.782-2.87 8.552-2.233 1.264 2.39 1.715 5.384.875 8.007-.326 1.018-.966 2.063-1.944 2.566-2.414 1.243-6.532 1.548-9.234 2.101-.517-1.499-1.268-2.984-1.899-4.441-.982-1.859-1.402-3.131-1.454-5.256l5.104-.744Z"/><path fill="#33332F" d="M544.733 101.836c.435 1.453.796 2.429.355 3.951-1.017 1.348-2.449 1.622-4.005 2.049-.982-1.859-1.402-3.131-1.454-5.256l5.104-.744Z"/><path fill="#FDFCF6" d="m543.99 156.31 7.715-.966c-2.423 11.263-1.966 24.339-2.274 35.859-.407 15.193-.946 30.321-.953 45.525-1.784.512-3.361 1.098-5.012 1.947.583-27.374 1.679-55.005.524-82.365ZM549.082 115.755c1.656-.376 3.28-.74 4.884-1.301 3.06 9.253 4.792 22.966.482 32.077-.814 1.721-1.99 3.326-3.865 3.945-2.317.765-5.135.813-7.564 1.048l-1.081.089c.337-3.702.744-7.388.895-11.105.177-4.339.692-19.974-2.171-23.091.287-.168.556-.368.86-.502 1.689-.743 5.985-1.816 7.56-1.16Z"/><defs><linearGradient id="a" x1="539.235" x2="546.91" y1="130.491" y2="132.42" gradientUnits="userSpaceOnUse"><stop offset="0" stop-color="#273237"/><stop offset="1" stop-color="#4B4F4E"/></linearGradient></defs><path fill="url(#a)" d="M540.662 117.417c.287-.168.556-.368.86-.502 1.689-.743 5.985-1.816 7.56-1.16l-2.431.764c2.989 8.623 3.166 21.193-.753 29.641-.83 1.617-2.478 3.678-2.879 5.364l-1.081.089c.337-3.702.744-7.388.895-11.105.177-4.339.692-19.974-2.171-23.091Z"/><path fill="#9DAF83" d="M545.898 146.16c-1.063-5.552 1.117-12.093.76-17.847-.207-3.345-2.516-7.889-1.987-11.048l1.98-.746c2.989 8.623 3.166 21.193-.753 29.641ZM536.337 261.232c1.34-.11 1.5-.308 2.543.502.134 1.37.297 2.609.001 3.973-.751.718-1.398 1.07-2.392 1.322-3.692.937-7.78.633-11.568 1.132-16.124 2.122-32.005 3.696-48.253 4.578-1.005.196-.48.222-1.567-.191-.556-3.34-.231-6.986-.164-10.373 20.102 2.031 41.269.413 61.4-.943ZM503.253 87.708c14.19-1.865 32.645 1.604 45.606 7.563-10.463 3.223-21.083 4.036-31.953 4.44-10 .522-20.149.002-30.126-.71-3.898-.28-10.907-.119-13.608-3.235l.093-1.034c4.876-5.409 22.782-6.477 29.988-7.024ZM468.877 98.426c1.735 1.304 3.412 2.561 5.471 3.316 12.465 4.573 40.522 3.987 53.883 2.694 3.571-.345 7.167-1.68 10.717-1.834.227-.01.454-.015.681-.022.052 2.125.472 3.397 1.454 5.256.631 1.457 1.382 2.942 1.899 4.441-18.695 3.949-54.81 4.931-72.561-1.533-1.232-1.702-2.219-3.524-3.243-5.354l1.699-6.964Z"/><path fill="#B7D5DC" d="M589.513 779.597c1.004-.189.789-.339 1.74.271 1.928 4.827 2.153 15.19 2.687 20.636 3.882 39.548 6.624 81.1.691 120.508-5.216 2.994-10.869 5.166-16.462 7.345l-1.73.421c-1.34-.836-.535-2.143-.01-3.356 4.629-10.709 7.626-21.434 9.36-32.991 4.185-27.883 4.387-84.52-2.461-111.257l6.185-1.577Z"/><path fill="#9DAF83" d="M468.038 114.419c16.801 6.174 42.412 5.839 60.243 5.017.133 10.532-.639 21.055-.799 31.583l1.398-.167c4.139-4.336 2.719-25.044 2.662-31.721 3.107-.414 6.106-.822 9.12-1.714 2.863 3.117 2.348 18.752 2.171 23.091-.151 3.717-.558 7.403-.895 11.105-5.278 1.002-11.496 1.817-16.856 1.435-9.646 1.826-43.405-.058-53.097-2.742-2.085-.578-3.162-1.822-4.134-3.68-4.696-8.975-2.463-22.935.187-32.207ZM473.24 155.77c20.898 5.278 46.597 4.298 67.801 1.306-2.116 32.161-1.535 64.81-1.742 97.049l-.235 1.353c-4.396 2.734-55.883 2.123-63.615 1.758.078-33.809 1.18-67.791-2.209-101.466Z"/><path fill="#B7D5DC" d="M403.549 767.767c56.167 26.134 118.799 26.6 178.444 13.624.828 46.216 7.964 93.54-7.058 138.359-1.385 3.588-2.661 7.565-4.809 10.76-15.088 4.219-31.878 5.332-47.473 5.798-25.498.762-90.932-3.598-109.271-21.458-4.569-4.449-7.19-10.249-8.612-16.389-4.059-17.528-2.899-43.465-2.544-61.643.449-23.008 1.242-46.042 1.323-69.051Z"/><path fill="#3D3E3C" d="M426.902 833.641c.311.089.634.144.933.269 2.248.937 1.403 7.072 1.315 9.056-.687 15.454-2.92 38.575 2.297 53.163 5.846 16.347 22.818 21.303 38.562 22.311 3.881.249 10.134-.485 13.638 1.146l-.263.75-2.12.901c-11.18 1.942-23.244 1.664-33.915-2.532-8.9-3.499-15.865-9.911-19.582-18.77-1.727-4.116-2.704-8.485-3.205-12.91-1.142-10.076-.969-45.259 2.34-53.384Z"/><path fill="#3D3E3C" d="M414.619 789.812c.935.785.992 1.875 1.132 3.052.968 8.145.42 16.898.398 25.1l.207 31.081c.001 4.099-.515 8.566.103 12.603l.637.367-.428.47c1.352-20.578 2.755-50.833 8.231-70.127l.197-.684c.066 8.557-.948 17.169-1.652 25.693l-2.872 35.534c-.701 19.722-3.657 45.629 6.777 63.217-.844.796-.828.759-1.992.809-.754-.409-1.412-.787-2.012-1.412-2.601-2.71-4.6-7.442-5.651-11.043-5.314-18.218-4.533-44.718-4.407-63.805.112-16.95.352-33.93 1.332-50.855Z"/><path fill="#F8F6EE" d="M404.399 548.428c32.372 16.798 161.078 16.539 197.008 5.153 2.06-.653 4.313-1.653 6.481-1.733.906 1.417.549 3.364.391 4.976-1.44 11.991-1.302 24.501-1.318 36.577l-.063 40.415c-.16 44.973-.84 90.022.745 134.976-13.385 5.637-28.236 8.702-42.485 11.266-56.226 10.117-106.089 5.168-158.945-16.216l-2.642-1.099c.607-28.323.819-56.714.943-85.045.045-10.298-.942-70.918.461-74.601-.438-.262-.147-.037-.435-1.014-.148-6.021-.226-12.024-.15-18.047l-.243-1.085c.39-5.211-.749-11.267.388-16.311l-.427-1.045c-.082-5.348-.782-11.981.291-17.167Z"/><path fill="#3A3A35" d="M425.422 738.545c7.499.559 15.222 2.862 22.706 4.024 6.292.977 13.296.993 19.404 2.47l.15.823c-1.579.565-3.082.962-4.754 1.156-10.006 1.164-29.475-2.192-37.506-8.473Z"/><path fill="#3D3E3C" d="M415.775 749.977c5.071-.109 17.101 4.617 23.058 6.064 4.993 1.212 10.705 1.262 15.51 2.958 1.058.373.822.351 1.265 1.267-2.023.764-3.936.822-6.07.772-9.481-.225-26.98-3.991-33.763-11.061Z"/><path fill="#3A3A35" d="m595.02 594.176 1.202.31.166.657c-.303.404-.378.538-.713.87-7.31 7.22-33.533 7.161-43.756 6.947-.501-.1-.828-.329-1.265-.584l.353-.61c6.726-2.047 16.851-2.55 24.16-3.787 6.626-1.121 13.17-3.158 19.853-3.803Z"/><path fill="#3D3E3C" d="m602.914 568.591 1.467-.094.531.503-.283.82c-12.234 10.202-37.827 10.796-53.006 9.59a8.735 8.735 0 0 1-1.957-.88c2.255-1.926 10.352-1.778 13.568-2.148 13.605-1.569 26.502-4.069 39.68-7.791ZM597.697 734.044c.279-.033.556-.095.837-.101 1.432-.029 1.688.111 2.659 1.043.017.804.195.951-.379 1.596-1.964 2.208-7.401 3.386-10.173 4.176-23.442 6.676-46.886 7.398-71.09 7.25l-3.796-.13c7.083-2.3 23.837-2.571 32.472-3.595 16.899-2.005 33.157-5.444 49.47-10.239ZM427.51 721.089c5.004-.557 33.332 6.083 40.708 7.327 8.084 1.363 16.226 2.677 24.377 3.575 5.414.595 11.469.616 16.719 1.877l-.104.788c-.871.229-1.747.427-2.638.564-16.791 2.585-65.785-4.19-79.062-14.131Z"/><path fill="#3A3A35" d="M404.54 602.083c5.291-.538 15.885 3.044 21.875 4.031 7.063 1.165 14.224 1.955 21.359 2.526 6.169.493 36.313.659 39.518 2.446-9.499 4.582-44.585 2.125-55.969.397-5.239-.795-10.333-1.983-15.332-3.75-3.736-1.32-7.451-2.905-11.016-4.636-.438-.262-.147-.037-.435-1.014ZM404.108 565.595c6.135.349 12.103 1.869 18.13 2.975 9.68 1.775 19.441 3.307 29.237 4.277 7.122.705 14.289 1.065 21.438 1.361 5.07.211 11.629-.308 16.47 1.199l.563.702c-1.313 1.603-2.816 1.827-4.751 2.007-23.414 2.179-59.506-1.271-80.66-11.476l-.427-1.045Z"/><path fill="#3D3E3C" d="M594.71 756.199c.309.008.128-.036.462.315-.131.105-.261.213-.393.317-7.302 5.759-17.726 7.241-26.661 8.637-27.906 4.361-55.218 3.985-83.238.929-.215-.034-.431-.062-.646-.101-1.284-.233-3.07-.444-3.832-1.529 5.561-1.313 21.893.04 28.299.145 8.689.142 17.389-.105 26.068-.551 21.32-1.094 39.194-4.955 59.941-8.162Z"/><path fill="#3A3A35" d="M404.147 582.951c7.91-.285 16.888 2.778 24.63 4.351 9.515 1.932 19.227 3.475 28.894 4.385 13.332 1.255 26.664 1.216 40.039 1.201 8.549-.011 17.786-.676 26.203.942-37.75 7.191-83.597 3.973-119.523-9.794l-.243-1.085Z"/><path fill="#B7D5DC" d="M474.5 276.992c6.724.188 13.486.495 20.206.079 14.683-.908 29.411-3.236 44.142-2.62.167 25.441 1.951 51.226 14.768 73.915 4.366 7.728 10.27 14.735 15.598 21.827 12.343 16.432 21.631 33.644 27.151 53.552 7.273 26.232 7.175 53.581 8.218 80.563.424 10.972.743 22.313 2.527 33.161 2.48-13.808 1.734-28.282 1.503-42.258-.686-41.415-2.989-79.153-27.621-114.487-7.694-11.037-16.121-21.37-22.78-33.122-11.535-20.353-15.999-49.766-15.71-73.165l6.89.086c1.732 18.919 2.09 38.776 8.444 56.863 5.985 17.039 17.214 30.196 28.01 44.313 13.926 18.209 23.994 38.13 28.925 60.658 3.824 17.472 4.084 35.408 4.301 53.213l.369 42.388c.127 12.691.707 25.372.762 38.065.204 46.919-.532 93.908-1.022 140.828-.404 38.606-.296 77.173-1.291 115.775-.438 16.979-.309 34.189-2.064 51.099-1.219 11.742-2.121 24.871-9.889 34.35-2.1 2.562-4.52 4.635-7.147 6.631 5.118-31.879 3.85-63.115 1.435-95.175-1.143-15.183-2.304-30.523-5.262-45.476 5.619-1.75 10.943-4.06 16.482-5.98.673-15.197.089-30.563.088-45.782l-.218-91.711-.484-51.185c-.109-7.92.516-16.996-.752-24.784.002-2.835-.432-5.8-.672-8.636-2.813-.011-5.621-.327-8.438-.185-6.256.315-12.706 1.715-18.899 2.707 1.344-11.085 1.346-22.91 1.239-34.078-.41-42.694-3.176-89.355-22.017-128.503-7.27-15.106-18.739-27.667-22.786-44.279-5.326-21.86-3.366-44.822-5.424-67.034-.114-1.233-.201-2.41-1.121-3.314-.841.536-.632.215-.959 1.082-2.131 5.653-1.188 21.142-1.008 27.531.594 21.027.822 43.547 12.074 62.07 6.606 10.875 13.384 20.471 17.987 32.531 7.374 19.321 11.603 40.23 14.374 60.668 1.352 9.967 2.178 19.973 2.786 30.011.563 9.281 1.377 57.549 3.703 62.425.078.163.168.319.252.479l-.359.366c-8.482 1.907-17.955 2.155-26.62 2.794-34.726 2.563-69.875 2.757-104.472-1.647-9.859-1.255-19.63-3.103-29.406-4.87-5.065-.915-10.221-2.098-15.348-2.54l-.574-.044c-1.364-3.337-.855-21.601-.929-26.574-.6-40.197-4.101-71.516 12.026-109.732 5.786-13.711 14.058-26.214 23.066-38 13.757-17.998 25.331-29.873 31.056-52.862 3.494-14.03 3.345-27.767 4.89-41.987Z"/><path fill="#3D3E3C" d="m473.42 358.359.549.472c.025 2.167-13.049 16.986-15.518 20.495-7.888 11.212-14.128 23.873-18.284 36.933-8.136 25.563-8.065 51.697-7.987 78.211.03 10.251.296 20.667-.769 30.878-.3 2.875-.353 6.257-2.729 8.198-2.499-5.185-1.406-64.042-.82-73.124.608-9.432 1.601-18.76 3.419-28.041 5.23-26.697 18.736-58.297 42.139-74.022Z"/><path fill="#3D3E3C" d="M483.533 282.278c1.297 1.888 1.253 5.028 1.339 7.275.974 25.638-6.322 47.423-20.95 68.265-5.401 7.694-11.377 14.98-16.502 22.87-8.183 12.6-14.536 26.311-18.62 40.781-3.269 11.581-5.14 23.517-6.146 35.497-1.271 15.125-1 30.325-1.196 45.486-.099 7.668.17 16.087-1.145 23.627-.276 1.581-.491 2.603-1.596 3.789-1.199-11.624-1.287-23.432-1.532-35.11-.85-40.554 2.466-78.663 24.459-113.865 10.088-16.148 23.301-29.222 30.842-47.142 4.695-11.156 6.974-22.549 8.455-34.493.691-5.569 1.017-11.594 2.592-16.98Z"/><path fill="#B1D1DA" d="M557.891 226.871c50.873-35.399 110.96-51.31 172.602-40.301 67.594 12.071 125.05 55.486 163.659 111.107 48.213 69.454 64.412 151.022 49.427 233.839-13.257 73.268-54.354 138.607-109.28 188.05-15.126 13.617-31.719 26.024-48.447 37.607-11.276 7.807-22.879 14.996-34.459 22.329-12.026 7.615-24.261 16.504-37.834 21.203l-.784.683c-17.266 7.033-35.01 14.83-53.244 18.942-4.776 1.078-9.618 1.799-14.495 2.212-2.754.234-7.188-.448-9.663.435-.979.35-.977.947-1.424 1.835.899-7.977.885-16.39 1.002-24.427.045-3.069-.194-6.418.169-9.456.235-1.968 2.431-3.864 2.135-5.713l-1.517 1.093c-.936-2.041-.534-81.212.083-87.694.751-15.093.227-30.481.167-45.591l-1.046-86.001-.893-50.375c-.353-33.212.025-68.215-10.206-100.186-6.911-21.598-18.985-38.453-32.742-55.969-8.254-10.51-15.914-21.084-21.284-33.421-12.211-28.057-11.129-69.666-11.926-100.201Z"/><path fill="#3A3A35" d="M785.443 698.955c.371.157.947.374 1.251.627.901.749.939 1.362 1.045 2.423-.516 1.599-1.256 2.189-2.503 3.204-.174-.124-.354-.24-.522-.371-1.319-1.03-1.617-1.723-1.776-3.307.621-1.437 1.235-1.767 2.505-2.576Z"/><path fill="#3D3E3C" d="M769.371 736.651c.475.09 1.208.205 1.635.406 1.25.588 1.504 1.238 2.016 2.406-.047 1.696-.545 2.43-1.48 3.755-1.739-.569-2.395-1.101-3.262-2.672-.017-1.622.338-2.472 1.091-3.895Z"/><path fill="#3A3A35" d="M739.948 750.25c.498.018 1.35.026 1.813.151 1.224.33 1.525.826 2.106 1.825.019 1.706-.52 2.56-1.37 3.958-.485-.029-1.309-.058-1.759-.189-1.253-.365-1.539-.921-2.157-1.951-.033-1.71.456-2.442 1.367-3.794Z"/><path fill="#3D3E3C" d="M726.863 713.218c.512.047 1.386.06 1.889.256 1.258.49 1.448.884 2.048 2-.074 1.761-.67 2.591-1.671 4.009-.569-.104-1.569-.205-2.117-.471-1.238-.601-1.376-1.029-1.851-2.217.167-1.565.801-2.361 1.702-3.577ZM666.821 665.739c.517.043 1.436.048 1.945.251 1.341.535 1.537 1.005 2.174 2.202-.058 1.746-.49 2.589-1.412 4.057-1.844-.441-2.973-.854-4.024-2.469-.094-1.761.445-2.6 1.317-4.041Z"/><path fill="#3A3A35" d="M692.434 690.166c.54.04 1.532.036 2.066.249 1.338.531 1.577 1.038 2.232 2.217.053 1.742-.312 2.499-1.224 3.965-.471-.053-.945-.091-1.41-.181-1.49-.289-2.073-.951-2.823-2.14-.17-1.774.288-2.588 1.159-4.11Z"/><path fill="#9DAF83" d="M633.949 824.812c.899-7.977.885-16.39 1.002-24.427.045-3.069-.194-6.418.169-9.456.235-1.968 2.431-3.864 2.135-5.713l-1.517 1.093c-.936-2.041-.534-81.212.083-87.694l.409 1.32c.95.334 13.608-1.138 16.753-1.03 25.986.889 48.566 19.592 59.415 42.396 8.056 16.934 7.957 41.223 1.458 58.64-.096.256-.198.509-.297.764l-.784.683c-17.266 7.033-35.01 14.83-53.244 18.942-4.776 1.078-9.618 1.799-14.495 2.212-2.754.234-7.188-.448-9.663.435-.979.35-.977.947-1.424 1.835Z"/><path fill="#3D3E3C" d="M677.823 725.19c.212.027.426.045.637.08 1.522.254 2.28.649 3.138 1.933.294 1.695-.093 2.589-.734 4.106-.592-.042-1.546-.036-2.131-.236-1.373-.469-1.605-.823-2.293-1.995.023-1.697.468-2.48 1.383-3.888ZM674.929 750.274c.463.057 1.155.122 1.583.267 1.296.438 1.593.949 2.285 2.028.088 1.768-.402 2.621-1.284 4.126-.837-.047-1.671-.192-2.502-.307-.947-.729-1.567-1.015-1.684-2.323-.129-1.447.823-2.678 1.602-3.791ZM648.518 721.233c.479.165 1.335.388 1.77.698 1.116.797 1.198 1.294 1.534 2.54-.379 1.688-.906 2.394-2.097 3.631-.73-.294-1.576-.587-2.227-1.03-1.09-.744-1.246-1.558-1.48-2.771.469-1.579 1.256-2.115 2.5-3.068ZM700.639 737.259c.761.02 1.638 0 2.374.198 1.351.363 1.798 1.085 2.443 2.228.072 1.705-.364 2.596-1.153 4.087-.499.007-1.479.093-1.986-.079-1.363-.461-1.627-.984-2.323-2.133-.167-1.724.028-2.69.645-4.301ZM657.52 767.334c.542.263 1.611.652 2.061 1.109.75.762 1.133 1.696.937 2.768-.284 1.552-1.632 2.583-2.755 3.548-.395-.231-.798-.45-1.175-.71-1.29-.889-1.716-1.752-1.962-3.258.576-1.691 1.56-2.383 2.894-3.457ZM648.994 747.828c.668.081 1.544.125 2.19.372 1.224.468 1.581 1.222 2.044 2.352-.13 1.853-.717 2.742-1.77 4.246-.693-.074-1.809-.129-2.442-.464-1.212-.64-1.338-1.177-1.777-2.373.162-1.821.692-2.666 1.755-4.133ZM677.535 776.855c.916.037 1.762.169 2.666.313 1.243.958 1.372 1.038 1.857 2.518-.231 1.808-.768 2.632-1.876 4.059-.927-.063-2.181-.155-2.998-.605-1.226-.674-1.354-1.35-1.654-2.575.326-1.678.89-2.433 2.005-3.71ZM662.946 792.846c1.529.1 3.005.38 4.182 1.453a4.284 4.284 0 0 1 1.422 3.402c-.094 2.27-1.381 3.568-2.96 5.02-1.656-.057-3.398-.317-4.569-1.64-.943-1.065-1.352-2.109-1.196-3.547.242-2.244 1.514-3.315 3.121-4.688Z"/></svg>