<?xml version="1.0" encoding="utf-8" ?>
<svg xmlns="http://www.w3.org/2000/svg" xmlns:xlink="http://www.w3.org/1999/xlink" width="1024" height="1024">
	<path fill="#FDFCF6" d="M0 0L1024 0L1024 1024L0 1024L0 0Z"/>
	<path fill="#3D3E3C" d="M733.608 802.227C734.069 802.25 734.53 802.261 734.988 802.313C736.426 802.479 737.002 802.919 737.817 804.005C737.905 805.596 737.295 806.351 736.448 807.602C735.96 807.59 735.201 807.593 734.742 807.475C733.384 807.129 733.121 806.671 732.469 805.561C732.479 804.049 732.846 803.471 733.608 802.227Z"/>
	<path fill="#3D3E3C" d="M322.999 882.872C323.094 882.878 323.19 882.885 323.285 882.89C324.33 882.939 324.994 883.056 325.954 883.52C330.926 885.925 339.69 892.365 341.635 897.472C337.867 895.281 324.432 886.299 322.999 882.872Z"/>
	<path fill="#3A3A35" d="M289.035 854.952C296.565 852.995 302.59 859.054 309.369 860.774C324.75 867.949 341.067 879.278 352.005 892.214C354.558 895.233 361.698 903.8 361.381 907.748C360.611 907.56 359.77 906.005 359.353 905.347C355.354 899.038 350.67 893.564 345.306 888.382C331.858 875.392 316.763 864.851 298.989 858.749C295.627 857.597 292.194 856.873 288.941 855.39L289.035 854.952Z"/>
	<path fill="#3D3E3C" d="M353.278 861.835C343.133 847.012 328.877 833.812 313.948 823.802C310.322 821.37 295.928 814.008 294.264 812.556C293.996 812.323 293.941 811.925 293.78 811.609L294.157 810.918C296.899 810.806 300.009 812.791 302.404 814.025C314.961 820.495 325.944 828.472 336.295 838.03C344.247 845.372 350.957 853.289 357.092 862.169C367.91 875.753 374.942 895.184 379.449 911.786C380.58 915.954 386.1 942.991 384.778 945.306C383.198 941.564 383.511 937.711 382.392 933.895C380.702 928.131 379.859 922.013 378.335 916.166C373.633 898.135 365.637 876.841 353.662 862.292C353.535 862.138 353.406 861.987 353.278 861.835Z"/>
	<path fill="#9DAF83" d="M387.931 717.532C388.039 765.876 386.567 814.146 385.509 862.474C376.112 861.606 366.512 862.021 357.092 862.169C350.957 853.289 344.247 845.372 336.295 838.03C325.944 828.472 314.961 820.495 302.404 814.025C300.009 812.791 296.899 810.806 294.157 810.918L293.78 811.609C293.941 811.925 293.996 812.323 294.264 812.556C295.928 814.008 310.322 821.37 313.948 823.802C328.877 833.812 343.133 847.012 353.278 861.835C344.002 861.839 334.654 862.044 325.385 861.715C320.105 861.527 314.617 860.498 309.369 860.774C302.59 859.054 296.565 852.995 289.035 854.952L290.114 853.964C289.767 853.477 272.33 846.682 270.195 845.71C259.817 840.982 245.916 833.918 241.887 822.361C239.345 815.069 241.165 807.098 244.45 800.363C260.678 767.09 314.76 745.554 347.315 732.775C360.78 727.49 374.248 722.234 387.931 717.532Z"/>
	<path fill="#FEE5A7" d="M712.775 801.388C711.355 804.511 708.623 809.518 709.426 813.007C710.024 815.61 714.056 817.62 716.267 818.639C722.926 821.706 731.013 819.795 738.107 819.151C766.963 816.533 806.404 808.794 834.311 811.987C844.954 813.205 855.552 816.231 864.865 821.602C872.632 826.082 879.723 832.436 882.963 840.998C885.368 847.355 885.738 854.55 882.955 860.853C877.294 873.671 862.317 881.535 849.858 886.147C802.602 903.639 746.842 892.729 700.475 877.49C686.438 872.876 672.667 866.302 658.463 862.467C652.718 868.122 646.157 883.714 643.693 891.589C642.745 894.616 642.275 899.224 640.663 901.821L640.065 901.203C642.959 884.004 646.929 875.545 655.75 860.684C653.056 859.521 650.557 856.763 647.796 855.23C647.616 860.775 647.512 866.283 647.632 871.831L647.251 871.898C645.006 867.728 646.255 859.16 646.667 854.451C641.945 851.265 637.184 848.168 632.858 844.446C633.113 837.893 633.982 831.382 633.949 824.812C634.396 823.924 634.394 823.327 635.373 822.977C637.848 822.094 642.282 822.776 645.036 822.542C649.913 822.129 654.755 821.408 659.531 820.33C677.765 816.218 695.509 808.421 712.775 801.388Z"/>
	<path fill="#3D3E3C" d="M655.75 860.684C669.638 842.14 686.042 826.138 710.029 822.775C711.418 822.58 713.073 822.178 714.382 822.793C713.191 823.946 709.97 823.966 708.25 824.31C702.94 825.373 697.712 827.305 692.834 829.633C682.977 834.337 674.85 840.875 667.281 848.665C670.49 847.804 674.162 843.695 677.056 841.8C685.581 836.219 701.204 832.802 710.786 837.167L711.111 837.733C706.581 838.67 701.564 837.704 696.935 837.933C684.685 838.54 672.049 848.102 663.284 855.827C667.016 855.053 673.681 853.893 676.95 856.168C678.063 856.943 678.055 857.5 678.171 858.714C674.015 859.551 669.582 851.433 658.463 862.467C652.718 868.122 646.157 883.714 643.693 891.589C642.745 894.616 642.275 899.224 640.663 901.821L640.065 901.203C642.959 884.004 646.929 875.545 655.75 860.684Z"/>
	<path fill="#FEE5A7" d="M219.584 405.641C195.811 392.986 174.781 371.429 161.909 347.972C143.322 314.098 139.742 274.698 150.621 237.749C161.088 202.201 186.188 170.888 218.778 153.179C253.716 134.195 295.174 129.346 333.363 140.855C369.866 151.856 400.445 177.533 418.384 211.095C434.085 240.471 440.993 280.979 431.088 313.216L430.7 313.598C416.671 323.042 404.106 334.337 389.343 342.787C374.336 351.376 358.081 358.251 342.016 364.574C302.039 380.306 260.665 391.48 220.169 405.684L219.584 405.641Z"/>
	<path fill="#B1D1DA" d="M431.088 313.216C435.603 310.981 439.916 307.245 444.025 304.278C451.116 299.158 458.156 294.167 465.661 289.664C463.116 308.56 458.111 325.748 446.115 340.997C440.374 348.295 433.99 355.066 428.33 362.436C416.992 377.202 407.33 393.606 400.866 411.092C395.866 424.62 392.132 438.905 390.657 453.273C389.205 467.416 389.415 481.528 389.504 495.722C389.626 514.952 390.006 534.191 389.917 553.419C389.664 608.133 388.021 662.804 387.931 717.532C374.248 722.234 360.78 727.49 347.315 732.775C314.76 745.554 260.678 767.09 244.45 800.363C241.165 807.098 239.345 815.069 241.887 822.361C245.916 833.918 259.817 840.982 270.195 845.71C272.33 846.682 289.767 853.477 290.114 853.964L289.035 854.952L288.941 855.39C292.194 856.873 295.627 857.597 298.989 858.749C291.028 860.95 255.558 850.82 247.068 847.844C184.522 825.921 125.265 764.504 96.9148 705.568C71.5344 652.806 62.0988 591.126 81.9807 535.005C95.9567 495.554 116.394 472.579 149.235 447.691C171.219 431.032 194.769 417.588 219.584 405.641L220.169 405.684C260.665 391.48 302.039 380.306 342.016 364.574C358.081 358.251 374.336 351.376 389.343 342.787C404.106 334.337 416.671 323.042 430.7 313.598L431.088 313.216Z"/>
	<path fill="#3A3A35" d="M286.601 694.733C288.013 694.862 288.612 694.923 289.779 695.825C290.1 697.388 289.858 697.864 289.392 699.354C288.318 699.106 287.719 698.763 286.83 698.118C286.239 696.637 286.335 696.328 286.601 694.733Z"/>
	<path fill="#3D3E3C" d="M266.327 673.211C267.805 673.687 268.167 673.772 269.206 674.898C269.153 676.48 268.751 676.934 267.95 678.267C266.875 677.901 266.297 677.445 265.455 676.691C265.231 675.053 265.613 674.663 266.327 673.211Z"/>
	<path fill="#3A3A35" d="M333.899 668.703C335.26 669.46 335.8 669.57 336.529 670.983C336.399 672.388 335.549 673.129 334.655 674.128C333.507 673.429 332.679 673.006 332.089 671.73C332.401 670.184 332.866 669.853 333.899 668.703Z"/>
	<path fill="#3D3E3C" d="M311.48 691.814C312.716 692.355 313.28 692.541 313.984 693.762C314.074 695.305 313.404 696.074 312.567 697.275C312.357 697.216 312.139 697.18 311.937 697.099C310.742 696.621 310.537 696.323 309.938 695.257C310.048 693.562 310.455 693.076 311.48 691.814Z"/>
	<path fill="#3D3E3C" d="M297.251 730.7C298.825 730.994 299.045 731.072 300.234 732.136C300.812 733.64 300.654 734.319 300.343 735.839C298.667 735.658 297.977 735.512 296.763 734.372C296.396 732.78 296.677 732.16 297.251 730.7Z"/>
	<path fill="#9DAF83" d="M220.169 405.684C260.665 391.48 302.039 380.306 342.016 364.574C358.081 358.251 374.336 351.376 389.343 342.787C404.106 334.337 416.671 323.042 430.7 313.598C429.571 329.176 414.49 354.492 405.112 366.952C399.916 373.857 394.019 380.432 387.487 386.104C357.859 411.831 319.351 425.996 279.986 423.05C260.345 421.581 237.093 415.992 220.169 405.684Z"/>
	<path fill="#3D3E3C" d="M465.489 111.763C463.669 107.913 462.66 103.668 463.612 99.4243C464.599 95.0262 467.664 91.8303 471.469 89.6171C487.599 80.2327 519.516 80.7321 537.219 85.4069C543.888 87.168 554.577 90.7251 558.042 97.1489C560.618 101.922 559.451 107.19 558.12 112.126C559.241 115.832 560.321 119.514 560.929 123.346C562.737 134.74 561.311 146.122 554.454 155.602C556.592 167.916 556.646 180.948 556.928 193.411L557.891 226.871C558.688 257.406 557.606 299.015 569.817 327.072C575.187 339.409 582.847 349.983 591.101 360.493C604.858 378.009 616.932 394.864 623.843 416.462C634.074 448.433 633.696 483.436 634.049 516.648L634.942 567.023L635.988 653.024C636.048 668.134 636.572 683.522 635.821 698.615C635.204 705.097 634.802 784.268 635.738 786.309L637.255 785.216C637.551 787.065 635.355 788.961 635.12 790.929C634.757 793.967 634.996 797.316 634.951 800.385C634.834 808.422 634.848 816.835 633.949 824.812C633.982 831.382 633.113 837.893 632.858 844.446C631.71 861.227 630.95 896.021 624.957 910.184C622.349 916.349 618.303 921.365 613.285 925.751C582.616 952.555 522.741 953.812 483.719 950.982C456.653 949.02 417.779 943.572 399.339 921.987C386.069 906.454 385.336 882.027 385.509 862.474C386.567 814.146 388.039 765.876 387.931 717.532C388.021 662.804 389.664 608.133 389.917 553.419C390.006 534.191 389.626 514.952 389.504 495.722C389.415 481.528 389.205 467.416 390.657 453.273C392.132 438.905 395.866 424.62 400.866 411.092C407.33 393.606 416.992 377.202 428.33 362.436C433.99 355.066 440.374 348.295 446.115 340.997C458.111 325.748 463.116 308.56 465.661 289.664C467.069 276.201 466.81 262.311 466.986 248.782C467.39 217.741 466.675 186.26 468.929 155.302C464.328 151.888 461.522 147.965 460.107 142.313C457.525 131.997 460.221 120.751 465.489 111.763Z"/>
	<path fill="#FEE5A7" d="M547.312 259.588C547.727 259.529 548.185 259.687 548.594 259.769C548.833 260.332 549.064 260.826 549.207 261.432C549.512 262.725 549.427 264.105 548.63 265.216C547.662 266.563 545.983 266.337 544.489 266.501C543.988 266.468 543.405 266.285 542.912 266.176L542.112 264.837C542.046 263.514 542.192 262.499 543.016 261.396C544.04 260.024 545.759 259.968 547.312 259.588Z"/>
	<path fill="#B7D5DC" d="M543.466 238.675C545.117 237.826 546.694 237.24 548.478 236.728C548.577 242.407 549.434 248.989 548.544 254.514C547.019 255.247 545.056 255.153 543.376 255.245L543.466 238.675Z"/>
	<path fill="#FDFCF6" d="M544.733 101.836C546.664 101.196 551.515 98.9656 553.285 99.6026C554.549 101.993 555 104.987 554.16 107.61C553.834 108.628 553.194 109.673 552.216 110.176C549.802 111.419 545.684 111.724 542.982 112.277C542.465 110.778 541.714 109.293 541.083 107.836C540.101 105.977 539.681 104.705 539.629 102.58L544.733 101.836Z"/>
	<path fill="#33332F" d="M544.733 101.836C545.168 103.289 545.529 104.265 545.088 105.787C544.071 107.135 542.639 107.409 541.083 107.836C540.101 105.977 539.681 104.705 539.629 102.58L544.733 101.836Z"/>
	<path fill="#FDFCF6" d="M543.99 156.31L551.705 155.344C549.282 166.607 549.739 179.683 549.431 191.203C549.024 206.396 548.485 221.524 548.478 236.728C546.694 237.24 545.117 237.826 543.466 238.675C544.049 211.301 545.145 183.67 543.99 156.31Z"/>
	<path fill="#FDFCF6" d="M549.082 115.755C550.738 115.379 552.362 115.015 553.966 114.454C557.026 123.707 558.758 137.42 554.448 146.531C553.634 148.252 552.458 149.857 550.583 150.476C548.266 151.241 545.448 151.289 543.019 151.524L541.938 151.613C542.275 147.911 542.682 144.225 542.833 140.508C543.01 136.169 543.525 120.534 540.662 117.417C540.949 117.249 541.218 117.049 541.522 116.915C543.211 116.172 547.507 115.099 549.082 115.755Z"/>
	<defs>
		<linearGradient id="gradient_0" gradientUnits="userSpaceOnUse" x1="539.23523" y1="130.49104" x2="546.91022" y2="132.41986">
			<stop offset="0" stop-color="#273237"/>
			<stop offset="1" stop-color="#4B4F4E"/>
		</linearGradient>
	</defs>
	<path fill="url(#gradient_0)" d="M540.662 117.417C540.949 117.249 541.218 117.049 541.522 116.915C543.211 116.172 547.507 115.099 549.082 115.755L546.651 116.519C549.64 125.142 549.817 137.712 545.898 146.16C545.068 147.777 543.42 149.838 543.019 151.524L541.938 151.613C542.275 147.911 542.682 144.225 542.833 140.508C543.01 136.169 543.525 120.534 540.662 117.417Z"/>
	<path fill="#9DAF83" d="M545.898 146.16C544.835 140.608 547.015 134.067 546.658 128.313C546.451 124.968 544.142 120.424 544.671 117.265L546.651 116.519C549.64 125.142 549.817 137.712 545.898 146.16Z"/>
	<path fill="#9DAF83" d="M536.337 261.232C537.677 261.122 537.837 260.924 538.88 261.734C539.014 263.104 539.177 264.343 538.881 265.707C538.13 266.425 537.483 266.777 536.489 267.029C532.797 267.966 528.709 267.662 524.921 268.161C508.797 270.283 492.916 271.857 476.668 272.739C475.663 272.935 476.188 272.961 475.101 272.548C474.545 269.208 474.87 265.562 474.937 262.175C495.039 264.206 516.206 262.588 536.337 261.232Z"/>
	<path fill="#9DAF83" d="M503.253 87.708C517.443 85.8432 535.898 89.3116 548.859 95.271C538.396 98.4938 527.776 99.3068 516.906 99.711C506.906 100.233 496.757 99.7132 486.78 99.0001C482.882 98.7214 475.873 98.8822 473.172 95.7665L473.265 94.7325C478.141 89.3233 496.047 88.2553 503.253 87.708Z"/>
	<path fill="#9DAF83" d="M468.877 98.4256C470.612 99.7296 472.289 100.987 474.348 101.742C486.813 106.315 514.87 105.729 528.231 104.436C531.802 104.091 535.398 102.756 538.948 102.602C539.175 102.592 539.402 102.587 539.629 102.58C539.681 104.705 540.101 105.977 541.083 107.836C541.714 109.293 542.465 110.778 542.982 112.277C524.287 116.226 488.172 117.208 470.421 110.744C469.189 109.042 468.202 107.22 467.178 105.39L468.877 98.4256Z"/>
	<path fill="#B7D5DC" d="M589.513 779.597C590.517 779.408 590.302 779.258 591.253 779.868C593.181 784.695 593.406 795.058 593.94 800.504C597.822 840.052 600.564 881.604 594.631 921.012C589.415 924.006 583.762 926.178 578.169 928.357L576.439 928.778C575.099 927.942 575.904 926.635 576.429 925.422C581.058 914.713 584.055 903.988 585.789 892.431C589.974 864.548 590.176 807.911 583.328 781.174L589.513 779.597Z"/>
	<path fill="#9DAF83" d="M468.038 114.419C484.839 120.593 510.45 120.258 528.281 119.436C528.414 129.968 527.642 140.491 527.482 151.019L528.88 150.852C533.019 146.516 531.599 125.808 531.542 119.131C534.649 118.717 537.648 118.309 540.662 117.417C543.525 120.534 543.01 136.169 542.833 140.508C542.682 144.225 542.275 147.911 541.938 151.613C536.66 152.615 530.442 153.43 525.082 153.048C515.436 154.874 481.677 152.99 471.985 150.306C469.9 149.728 468.823 148.484 467.851 146.626C463.155 137.651 465.388 123.691 468.038 114.419Z"/>
	<path fill="#9DAF83" d="M473.24 155.77C494.138 161.048 519.837 160.068 541.041 157.076C538.925 189.237 539.506 221.886 539.299 254.125L539.064 255.478C534.668 258.212 483.181 257.601 475.449 257.236C475.527 223.427 476.629 189.445 473.24 155.77Z"/>
	<path fill="#B7D5DC" d="M403.549 767.767C459.716 793.901 522.348 794.367 581.993 781.391C582.821 827.607 589.957 874.931 574.935 919.75C573.55 923.338 572.274 927.315 570.126 930.51C555.038 934.729 538.248 935.842 522.653 936.308C497.155 937.07 431.721 932.71 413.382 914.85C408.813 910.401 406.192 904.601 404.77 898.461C400.711 880.933 401.871 854.996 402.226 836.818C402.675 813.81 403.468 790.776 403.549 767.767Z"/>
	<path fill="#3D3E3C" d="M426.902 833.641C427.213 833.73 427.536 833.785 427.835 833.91C430.083 834.847 429.238 840.982 429.15 842.966C428.463 858.42 426.23 881.541 431.447 896.129C437.293 912.476 454.265 917.432 470.009 918.44C473.89 918.689 480.143 917.955 483.647 919.586L483.384 920.336L481.264 921.237C470.084 923.179 458.02 922.901 447.349 918.705C438.449 915.206 431.484 908.794 427.767 899.935C426.04 895.819 425.063 891.45 424.562 887.025C423.42 876.949 423.593 841.766 426.902 833.641Z"/>
	<path fill="#3D3E3C" d="M414.619 789.812C415.554 790.597 415.611 791.687 415.751 792.864C416.719 801.009 416.171 809.762 416.149 817.964L416.356 849.045C416.357 853.144 415.841 857.611 416.459 861.648L417.096 862.015L416.668 862.485C418.02 841.907 419.423 811.652 424.899 792.358L425.096 791.674C425.162 800.231 424.148 808.843 423.444 817.367L420.572 852.901C419.871 872.623 416.915 898.53 427.349 916.118C426.505 916.914 426.521 916.877 425.357 916.927C424.603 916.518 423.945 916.14 423.345 915.515C420.744 912.805 418.745 908.073 417.694 904.472C412.38 886.254 413.161 859.754 413.287 840.667C413.399 823.717 413.639 806.737 414.619 789.812Z"/>
	<path fill="#F8F6EE" d="M404.399 548.428C436.771 565.226 565.477 564.967 601.407 553.581C603.467 552.928 605.72 551.928 607.888 551.848C608.794 553.265 608.437 555.212 608.279 556.824C606.839 568.815 606.977 581.325 606.961 593.401L606.898 633.816C606.738 678.789 606.058 723.838 607.643 768.792C594.258 774.429 579.407 777.494 565.158 780.058C508.932 790.175 459.069 785.226 406.213 763.842L403.571 762.743C404.178 734.42 404.39 706.029 404.514 677.698C404.559 667.4 403.572 606.78 404.975 603.097C404.537 602.835 404.828 603.06 404.54 602.083C404.392 596.062 404.314 590.059 404.39 584.036L404.147 582.951C404.537 577.74 403.398 571.684 404.535 566.64L404.108 565.595C404.026 560.247 403.326 553.614 404.399 548.428Z"/>
	<path fill="#3A3A35" d="M425.422 738.545C432.921 739.104 440.644 741.407 448.128 742.569C454.42 743.546 461.424 743.562 467.532 745.039L467.682 745.862C466.103 746.427 464.6 746.824 462.928 747.018C452.922 748.182 433.453 744.826 425.422 738.545Z"/>
	<path fill="#3D3E3C" d="M415.775 749.977C420.846 749.868 432.876 754.594 438.833 756.041C443.826 757.253 449.538 757.303 454.343 758.999C455.401 759.372 455.165 759.35 455.608 760.266C453.585 761.03 451.672 761.088 449.538 761.038C440.057 760.813 422.558 757.047 415.775 749.977Z"/>
	<path fill="#3A3A35" d="M595.02 594.176L596.222 594.486L596.388 595.143C596.085 595.547 596.01 595.681 595.675 596.013C588.365 603.233 562.142 603.174 551.919 602.96C551.418 602.86 551.091 602.631 550.654 602.376L551.007 601.766C557.733 599.719 567.858 599.216 575.167 597.979C581.793 596.858 588.337 594.821 595.02 594.176Z"/>
	<path fill="#3D3E3C" d="M602.914 568.591L604.381 568.497L604.912 569L604.629 569.82C592.395 580.022 566.802 580.616 551.623 579.41C550.836 579.153 550.361 578.939 549.666 578.53C551.921 576.604 560.018 576.752 563.234 576.382C576.839 574.813 589.736 572.313 602.914 568.591Z"/>
	<path fill="#3D3E3C" d="M597.697 734.044C597.976 734.011 598.253 733.949 598.534 733.943C599.966 733.914 600.222 734.054 601.193 734.986C601.21 735.79 601.388 735.937 600.814 736.582C598.85 738.79 593.413 739.968 590.641 740.758C567.199 747.434 543.755 748.156 519.551 748.008L515.755 747.878C522.838 745.578 539.592 745.307 548.227 744.283C565.126 742.278 581.384 738.839 597.697 734.044Z"/>
	<path fill="#3D3E3C" d="M427.51 721.089C432.514 720.532 460.842 727.172 468.218 728.416C476.302 729.779 484.444 731.093 492.595 731.991C498.009 732.586 504.064 732.607 509.314 733.868L509.21 734.656C508.339 734.885 507.463 735.083 506.572 735.22C489.781 737.805 440.787 731.03 427.51 721.089Z"/>
	<path fill="#3A3A35" d="M404.54 602.083C409.831 601.545 420.425 605.127 426.415 606.114C433.478 607.279 440.639 608.069 447.774 608.64C453.943 609.133 484.087 609.299 487.292 611.086C477.793 615.668 442.707 613.211 431.323 611.483C426.084 610.688 420.99 609.5 415.991 607.733C412.255 606.413 408.54 604.828 404.975 603.097C404.537 602.835 404.828 603.06 404.54 602.083Z"/>
	<path fill="#3A3A35" d="M404.108 565.595C410.243 565.944 416.211 567.464 422.238 568.57C431.918 570.345 441.679 571.877 451.475 572.847C458.597 573.552 465.764 573.912 472.913 574.208C477.983 574.419 484.542 573.9 489.383 575.407L489.946 576.109C488.633 577.712 487.13 577.936 485.195 578.116C461.781 580.295 425.689 576.845 404.535 566.64L404.108 565.595Z"/>
	<path fill="#3D3E3C" d="M594.71 756.199C595.019 756.207 594.838 756.163 595.172 756.514C595.041 756.619 594.911 756.727 594.779 756.831C587.477 762.59 577.053 764.072 568.118 765.468C540.212 769.829 512.9 769.453 484.88 766.397C484.665 766.363 484.449 766.335 484.234 766.296C482.95 766.063 481.164 765.852 480.402 764.767C485.963 763.454 502.295 764.807 508.701 764.912C517.39 765.054 526.09 764.807 534.769 764.361C556.089 763.267 573.963 759.406 594.71 756.199Z"/>
	<path fill="#3A3A35" d="M404.147 582.951C412.057 582.666 421.035 585.729 428.777 587.302C438.292 589.234 448.004 590.777 457.671 591.687C471.003 592.942 484.335 592.903 497.71 592.888C506.259 592.877 515.496 592.212 523.913 593.83C486.163 601.021 440.316 597.803 404.39 584.036L404.147 582.951Z"/>
	<path fill="#B7D5DC" d="M474.5 276.992C481.224 277.18 487.986 277.487 494.706 277.071C509.389 276.163 524.117 273.835 538.848 274.451C539.015 299.892 540.799 325.677 553.616 348.366C557.982 356.094 563.886 363.101 569.214 370.193C581.557 386.625 590.845 403.837 596.365 423.745C603.638 449.977 603.54 477.326 604.583 504.308C605.007 515.28 605.326 526.621 607.11 537.469C609.59 523.661 608.844 509.187 608.613 495.211C607.927 453.796 605.624 416.058 580.992 380.724C573.298 369.687 564.871 359.354 558.212 347.602C546.677 327.249 542.213 297.836 542.502 274.437L549.392 274.523C551.124 293.442 551.482 313.299 557.836 331.386C563.821 348.425 575.05 361.582 585.846 375.699C599.772 393.908 609.84 413.829 614.771 436.357C618.595 453.829 618.855 471.765 619.072 489.57L619.441 531.958C619.568 544.649 620.148 557.33 620.203 570.023C620.407 616.942 619.671 663.931 619.181 710.851C618.777 749.457 618.885 788.024 617.89 826.626C617.452 843.605 617.581 860.815 615.826 877.725C614.607 889.467 613.705 902.596 605.937 912.075C603.837 914.637 601.417 916.71 598.79 918.706C603.908 886.827 602.64 855.591 600.225 823.531C599.082 808.348 597.921 793.008 594.963 778.055C600.582 776.305 605.906 773.995 611.445 772.075C612.118 756.878 611.534 741.512 611.533 726.293L611.315 634.582L610.831 583.397C610.722 575.477 611.347 566.401 610.079 558.613C610.081 555.778 609.647 552.813 609.407 549.977C606.594 549.966 603.786 549.65 600.969 549.792C594.713 550.107 588.263 551.507 582.07 552.499C583.414 541.414 583.416 529.589 583.309 518.421C582.899 475.727 580.133 429.066 561.292 389.918C554.022 374.812 542.553 362.251 538.506 345.639C533.18 323.779 535.14 300.817 533.082 278.605C532.968 277.372 532.881 276.195 531.961 275.291C531.12 275.827 531.329 275.506 531.002 276.373C528.871 282.026 529.814 297.515 529.994 303.904C530.588 324.931 530.816 347.451 542.068 365.974C548.674 376.849 555.452 386.445 560.055 398.505C567.429 417.826 571.658 438.735 574.429 459.173C575.781 469.14 576.607 479.146 577.215 489.184C577.778 498.465 578.592 546.733 580.918 551.609C580.996 551.772 581.086 551.928 581.17 552.088L580.811 552.454C572.329 554.361 562.856 554.609 554.191 555.248C519.465 557.811 484.316 558.005 449.719 553.601C439.86 552.346 430.089 550.498 420.313 548.731C415.248 547.816 410.092 546.633 404.965 546.191L404.391 546.147C403.027 542.81 403.536 524.546 403.462 519.573C402.862 479.376 399.361 448.057 415.488 409.841C421.274 396.13 429.546 383.627 438.554 371.841C452.311 353.843 463.885 341.968 469.61 318.979C473.104 304.949 472.955 291.212 474.5 276.992Z"/>
	<path fill="#3D3E3C" d="M473.42 358.359L473.969 358.831C473.994 360.998 460.92 375.817 458.451 379.326C450.563 390.538 444.323 403.199 440.167 416.259C432.031 441.822 432.102 467.956 432.18 494.47C432.21 504.721 432.476 515.137 431.411 525.348C431.111 528.223 431.058 531.605 428.682 533.546C426.183 528.361 427.276 469.504 427.862 460.422C428.47 450.99 429.463 441.662 431.281 432.381C436.511 405.684 450.017 374.084 473.42 358.359Z"/>
	<path fill="#3D3E3C" d="M483.533 282.278C484.83 284.166 484.786 287.306 484.872 289.553C485.846 315.191 478.55 336.976 463.922 357.818C458.521 365.512 452.545 372.798 447.42 380.688C439.237 393.288 432.884 406.999 428.8 421.469C425.531 433.05 423.66 444.986 422.654 456.966C421.383 472.091 421.654 487.291 421.458 502.452C421.359 510.12 421.628 518.539 420.313 526.079C420.037 527.66 419.822 528.682 418.717 529.868C417.518 518.244 417.43 506.436 417.185 494.758C416.335 454.204 419.651 416.095 441.644 380.893C451.732 364.745 464.945 351.671 472.486 333.751C477.181 322.595 479.46 311.202 480.941 299.258C481.632 293.689 481.958 287.664 483.533 282.278Z"/>
	<path fill="#B1D1DA" d="M557.891 226.871C608.764 191.472 668.851 175.561 730.493 186.57C798.087 198.641 855.543 242.056 894.152 297.677C942.365 367.131 958.564 448.699 943.579 531.516C930.322 604.784 889.225 670.123 834.299 719.566C819.173 733.183 802.58 745.59 785.852 757.173C774.576 764.98 762.973 772.169 751.393 779.502C739.367 787.117 727.132 796.006 713.559 800.705L712.775 801.388C695.509 808.421 677.765 816.218 659.531 820.33C654.755 821.408 649.913 822.129 645.036 822.542C642.282 822.776 637.848 822.094 635.373 822.977C634.394 823.327 634.396 823.924 633.949 824.812C634.848 816.835 634.834 808.422 634.951 800.385C634.996 797.316 634.757 793.967 635.12 790.929C635.355 788.961 637.551 787.065 637.255 785.216L635.738 786.309C634.802 784.268 635.204 705.097 635.821 698.615C636.572 683.522 636.048 668.134 635.988 653.024L634.942 567.023L634.049 516.648C633.696 483.436 634.074 448.433 623.843 416.462C616.932 394.864 604.858 378.009 591.101 360.493C582.847 349.983 575.187 339.409 569.817 327.072C557.606 299.015 558.688 257.406 557.891 226.871Z"/>
	<path fill="#3A3A35" d="M785.443 698.955C785.814 699.112 786.39 699.329 786.694 699.582C787.595 700.331 787.633 700.944 787.739 702.005C787.223 703.604 786.483 704.194 785.236 705.209C785.062 705.085 784.882 704.969 784.714 704.838C783.395 703.808 783.097 703.115 782.938 701.531C783.559 700.094 784.173 699.764 785.443 698.955Z"/>
	<path fill="#3D3E3C" d="M769.371 736.651C769.846 736.741 770.579 736.856 771.006 737.057C772.256 737.645 772.51 738.295 773.022 739.463C772.975 741.159 772.477 741.893 771.542 743.218C769.803 742.649 769.147 742.117 768.28 740.546C768.263 738.924 768.618 738.074 769.371 736.651Z"/>
	<path fill="#3A3A35" d="M739.948 750.25C740.446 750.268 741.298 750.276 741.761 750.401C742.985 750.731 743.286 751.227 743.867 752.226C743.886 753.932 743.347 754.786 742.497 756.184C742.012 756.155 741.188 756.126 740.738 755.995C739.485 755.63 739.199 755.074 738.581 754.044C738.548 752.334 739.037 751.602 739.948 750.25Z"/>
	<path fill="#3D3E3C" d="M726.863 713.218C727.375 713.265 728.249 713.278 728.752 713.474C730.01 713.964 730.2 714.358 730.8 715.474C730.726 717.235 730.13 718.065 729.129 719.483C728.56 719.379 727.56 719.278 727.012 719.012C725.774 718.411 725.636 717.983 725.161 716.795C725.328 715.23 725.962 714.434 726.863 713.218Z"/>
	<path fill="#3D3E3C" d="M666.821 665.739C667.338 665.782 668.257 665.787 668.766 665.99C670.107 666.525 670.303 666.995 670.94 668.192C670.882 669.938 670.45 670.781 669.528 672.249C667.684 671.808 666.555 671.395 665.504 669.78C665.41 668.019 665.949 667.18 666.821 665.739Z"/>
	<path fill="#3A3A35" d="M692.434 690.166C692.974 690.206 693.966 690.202 694.5 690.415C695.838 690.946 696.077 691.453 696.732 692.632C696.785 694.374 696.42 695.131 695.508 696.597C695.037 696.544 694.563 696.506 694.098 696.416C692.608 696.127 692.025 695.465 691.275 694.276C691.105 692.502 691.563 691.688 692.434 690.166Z"/>
	<path fill="#9DAF83" d="M633.949 824.812C634.848 816.835 634.834 808.422 634.951 800.385C634.996 797.316 634.757 793.967 635.12 790.929C635.355 788.961 637.551 787.065 637.255 785.216L635.738 786.309C634.802 784.268 635.204 705.097 635.821 698.615L636.23 699.935C637.18 700.269 649.838 698.797 652.983 698.905C678.969 699.794 701.549 718.497 712.398 741.301C720.454 758.235 720.355 782.524 713.856 799.941C713.76 800.197 713.658 800.45 713.559 800.705L712.775 801.388C695.509 808.421 677.765 816.218 659.531 820.33C654.755 821.408 649.913 822.129 645.036 822.542C642.282 822.776 637.848 822.094 635.373 822.977C634.394 823.327 634.396 823.924 633.949 824.812Z"/>
	<path fill="#3D3E3C" d="M677.823 725.19C678.035 725.217 678.249 725.235 678.46 725.27C679.982 725.524 680.74 725.919 681.598 727.203C681.892 728.898 681.505 729.792 680.864 731.309C680.272 731.267 679.318 731.273 678.733 731.073C677.36 730.604 677.128 730.25 676.44 729.078C676.463 727.381 676.908 726.598 677.823 725.19Z"/>
	<path fill="#3D3E3C" d="M674.929 750.274C675.392 750.331 676.084 750.396 676.512 750.541C677.808 750.979 678.105 751.49 678.797 752.569C678.885 754.337 678.395 755.19 677.513 756.695C676.676 756.648 675.842 756.503 675.011 756.388C674.064 755.659 673.444 755.373 673.327 754.065C673.198 752.618 674.15 751.387 674.929 750.274Z"/>
	<path fill="#3D3E3C" d="M648.518 721.233C648.997 721.398 649.853 721.621 650.288 721.931C651.404 722.728 651.486 723.225 651.822 724.471C651.443 726.159 650.916 726.865 649.725 728.102C648.995 727.808 648.149 727.515 647.498 727.072C646.408 726.328 646.252 725.514 646.018 724.301C646.487 722.722 647.274 722.186 648.518 721.233Z"/>
	<path fill="#3D3E3C" d="M700.639 737.259C701.4 737.279 702.277 737.259 703.013 737.457C704.364 737.82 704.811 738.542 705.456 739.685C705.528 741.39 705.092 742.281 704.303 743.772C703.804 743.779 702.824 743.865 702.317 743.693C700.954 743.232 700.69 742.709 699.994 741.56C699.827 739.836 700.022 738.87 700.639 737.259Z"/>
	<path fill="#3D3E3C" d="M657.52 767.334C658.062 767.597 659.131 767.986 659.581 768.443C660.331 769.205 660.714 770.139 660.518 771.211C660.234 772.763 658.886 773.794 657.763 774.759C657.368 774.528 656.965 774.309 656.588 774.049C655.298 773.16 654.872 772.297 654.626 770.791C655.202 769.1 656.186 768.408 657.52 767.334Z"/>
	<path fill="#3D3E3C" d="M648.994 747.828C649.662 747.909 650.538 747.953 651.184 748.2C652.408 748.668 652.765 749.422 653.228 750.552C653.098 752.405 652.511 753.294 651.458 754.798C650.765 754.724 649.649 754.669 649.016 754.334C647.804 753.694 647.678 753.157 647.239 751.961C647.401 750.14 647.931 749.295 648.994 747.828Z"/>
	<path fill="#3D3E3C" d="M677.535 776.855C678.451 776.892 679.297 777.024 680.201 777.168C681.444 778.126 681.573 778.206 682.058 779.686C681.827 781.494 681.29 782.318 680.182 783.745C679.255 783.682 678.001 783.59 677.184 783.14C675.958 782.466 675.83 781.79 675.53 780.565C675.856 778.887 676.42 778.132 677.535 776.855Z"/>
	<path fill="#3D3E3C" d="M662.946 792.846C664.475 792.946 665.951 793.226 667.128 794.299C668.099 795.183 668.605 796.388 668.55 797.701C668.456 799.971 667.169 801.269 665.59 802.721C663.934 802.664 662.192 802.404 661.021 801.081C660.078 800.016 659.669 798.972 659.825 797.534C660.067 795.29 661.339 794.219 662.946 792.846Z"/>
</svg>
